<svg width="1599" height="160" viewBox="0 0 1599 160" fill="none" xmlns="http://www.w3.org/2000/svg">
<path d="M30.0973 124L35.1075 86.856H20.5954L15.5852 124H3.83736L8.84749 86.856H0.0365777V76.4902H10.2296L14.0304 48.5026H5.39223V38.1368H15.4125L20.4226 0.992774H32.1705L27.1604 38.1368H41.6725L46.6826 0.992774H58.4305L53.4203 38.1368H62.2312V48.5026H52.0382L48.2374 76.4902H56.8756V86.856H46.8553L41.8452 124H30.0973ZM36.4896 76.4902L40.2903 48.5026H25.7783L21.9775 76.4902H36.4896ZM71.5726 124V0.992774H124.093V17.578H89.1944V53.6855H119.601V70.2707H89.1944V106.378H124.093V124H71.5726ZM134.824 84.9556V67.3337H186.826V84.9556H134.824ZM201.627 36.4092V9.80368H219.248V36.4092H230.133V50.2302H219.248V98.7766C219.248 100.85 219.421 102.462 219.767 103.614C220.227 104.766 220.919 105.63 221.84 106.205C222.761 106.781 223.855 107.127 225.122 107.242C226.505 107.357 228.175 107.415 230.133 107.415V124H222.876C218.845 124 215.448 123.367 212.683 122.1C210.034 120.833 207.904 119.22 206.291 117.262C204.679 115.304 203.469 113.116 202.663 110.697C201.972 108.163 201.627 105.745 201.627 103.441V50.2302H192.816V36.4092H201.627ZM287.853 86.856H252.955V98.7766C252.955 101.541 253.703 103.672 255.201 105.169C256.813 106.666 258.944 107.415 261.593 107.415C264.933 107.415 267.121 106.436 268.158 104.478C269.31 102.52 270.001 100.562 270.231 98.6038H287.853C287.853 106.321 285.492 112.54 280.77 117.262C278.466 119.681 275.702 121.581 272.477 122.963C269.252 124.346 265.624 125.037 261.593 125.037C256.065 125.037 251.342 123.885 247.426 121.581C243.626 119.278 240.689 116.226 238.615 112.425C237.349 110.121 236.485 107.472 236.024 104.478C235.563 101.483 235.333 98.2007 235.333 94.6303V65.7789C235.333 62.2084 235.563 58.9259 236.024 55.9314C236.485 52.9368 237.349 50.2878 238.615 47.9843C240.689 44.1835 243.626 41.1314 247.426 38.8279C251.342 36.5244 256.065 35.3726 261.593 35.3726C265.624 35.3726 269.252 36.0637 272.477 37.4458C275.817 38.8279 278.639 40.7283 280.942 43.1469C285.549 48.3298 287.853 54.8372 287.853 62.6691V86.856ZM252.955 73.0349H270.231V63.0147C270.231 59.6746 269.425 57.1983 267.812 55.5859C266.315 53.8582 264.242 52.9944 261.593 52.9944C258.944 52.9944 256.813 53.8582 255.201 55.5859C253.703 57.1983 252.955 59.6746 252.955 63.0147V73.0349ZM334.174 124V115.016H333.828C331.525 118.241 329.164 120.718 326.745 122.445C324.441 124.173 321.159 125.037 316.897 125.037C314.824 125.037 312.693 124.691 310.505 124C308.432 123.424 306.416 122.272 304.458 120.545C302.5 118.932 300.888 116.629 299.621 113.634C298.469 110.524 297.893 106.551 297.893 101.714C297.893 96.761 298.297 92.442 299.103 88.7564C299.909 84.9556 301.406 81.7882 303.595 79.2544C305.668 76.8357 308.49 75.0505 312.06 73.8987C315.63 72.6318 320.18 71.9983 325.708 71.9983C326.284 71.9983 326.918 71.9983 327.609 71.9983C328.3 71.9983 328.933 72.0559 329.509 72.1711C330.085 72.2863 330.776 72.3439 331.582 72.3439C332.388 72.3439 333.252 72.4015 334.174 72.5166V63.3602C334.174 60.3656 333.54 57.8894 332.273 55.9314C331.006 53.9734 328.703 52.9944 325.363 52.9944C323.059 52.9944 320.928 53.7431 318.97 55.2403C317.128 56.7376 315.918 58.926 315.342 61.8053H298.239C298.7 53.9734 301.349 47.6388 306.186 42.8014C308.49 40.4979 311.254 38.7127 314.479 37.4458C317.704 36.0637 321.332 35.3726 325.363 35.3726C329.048 35.3726 332.504 35.9485 335.729 37.1002C338.953 38.252 341.775 39.9796 344.194 42.2831C346.497 44.5866 348.34 47.466 349.722 50.9213C351.104 54.3765 351.795 58.4077 351.795 63.0147V124H334.174ZM334.174 86.3377C332.216 85.9921 330.603 85.8194 329.336 85.8194C325.535 85.8194 322.253 86.7408 319.489 88.5836C316.84 90.3112 315.515 93.5361 315.515 98.2583C315.515 101.598 316.321 104.305 317.934 106.378C319.546 108.451 321.792 109.488 324.672 109.488C327.666 109.488 329.97 108.509 331.582 106.551C333.31 104.593 334.174 101.829 334.174 98.2583V86.3377ZM364.773 124V36.4092H382.395V44.8746H382.74C384.583 42.1104 386.771 39.8644 389.305 38.1368C391.954 36.294 395.294 35.3726 399.326 35.3726C403.126 35.3726 406.294 36.294 408.827 38.1368C411.361 39.9796 413.434 41.9952 415.047 44.1835C417.235 41.7648 419.654 39.6917 422.303 37.964C424.952 36.2364 428.638 35.3726 433.36 35.3726C435.548 35.3726 437.794 35.7757 440.098 36.5819C442.401 37.273 444.474 38.4823 446.317 40.21C448.16 41.9376 449.657 44.1835 450.809 46.9477C451.961 49.5968 452.537 52.8792 452.537 56.7952V124H434.915V63.3602C434.915 60.1353 434.166 57.6014 432.669 55.7586C431.171 53.9158 429.041 52.9944 426.277 52.9944C422.936 52.9944 420.633 54.031 419.366 56.1042C418.099 58.1773 417.466 61.1719 417.466 65.0878V124H399.844V63.3602C399.844 60.1353 399.095 57.6014 397.598 55.7586C396.101 53.9158 393.97 52.9944 391.206 52.9944C387.866 52.9944 385.562 54.031 384.295 56.1042C383.028 58.1773 382.395 61.1719 382.395 65.0878V124H364.773ZM531.03 60.9415C530.915 57.947 529.936 55.701 528.093 54.2038C526.366 52.7065 524.35 51.9578 522.047 51.9578C519.282 51.9578 517.152 52.8792 515.654 54.7221C514.157 56.4497 513.408 58.4653 513.408 60.7688C513.408 62.3812 513.812 63.9937 514.618 65.6061C515.424 67.1034 517.497 68.4855 520.837 69.7524L531.203 73.8987C537.768 76.4326 542.26 79.8879 544.679 84.2645C547.212 88.6412 548.479 93.421 548.479 98.6038C548.479 102.289 547.788 105.745 546.406 108.97C545.139 112.079 543.354 114.844 541.051 117.262C538.747 119.681 535.983 121.581 532.758 122.963C529.533 124.346 526.02 125.037 522.219 125.037C515.078 125.037 509.089 122.791 504.252 118.299C501.833 116.11 499.875 113.404 498.378 110.179C496.881 106.839 496.075 102.981 495.959 98.6038H512.545C512.89 101.023 513.696 103.268 514.963 105.342C516.345 107.415 518.707 108.451 522.047 108.451C524.58 108.451 526.826 107.645 528.784 106.033C530.858 104.305 531.894 101.944 531.894 98.9494C531.894 96.5307 531.261 94.4575 529.994 92.7299C528.727 91.0023 526.423 89.505 523.083 88.2381L514.618 85.1283C509.089 83.0552 504.713 80.003 501.488 75.9719C498.378 71.8256 496.823 66.8155 496.823 60.9415C496.823 57.2559 497.514 53.8582 498.896 50.7485C500.278 47.5236 502.179 44.7594 504.598 42.4559C506.901 40.1524 509.608 38.4247 512.717 37.273C515.827 36.0061 519.167 35.3726 522.738 35.3726C526.308 35.3726 529.591 36.0061 532.585 37.273C535.695 38.5399 538.344 40.3251 540.532 42.6286C542.721 44.9321 544.448 47.6964 545.715 50.9213C546.982 54.031 547.616 57.3711 547.616 60.9415H531.03ZM559.806 36.4092V9.80368H577.428V36.4092H588.312V50.2302H577.428V98.7766C577.428 100.85 577.601 102.462 577.946 103.614C578.407 104.766 579.098 105.63 580.019 106.205C580.941 106.781 582.035 107.127 583.302 107.242C584.684 107.357 586.354 107.415 588.312 107.415V124H581.056C577.025 124 573.627 123.367 570.863 122.1C568.214 120.833 566.083 119.22 564.471 117.262C562.858 115.304 561.649 113.116 560.843 110.697C560.152 108.163 559.806 105.745 559.806 103.441V50.2302H550.995V36.4092H559.806ZM647.76 36.4092V124H630.138V115.535H629.793C627.95 118.299 625.704 120.602 623.055 122.445C620.521 124.173 617.239 125.037 613.207 125.037C611.019 125.037 608.831 124.691 606.642 124C604.454 123.194 602.496 121.927 600.768 120.199C599.041 118.472 597.659 116.283 596.622 113.634C595.586 110.87 595.067 107.53 595.067 103.614V36.4092H612.689V97.049C612.689 100.274 613.438 102.808 614.935 104.651C616.432 106.493 618.563 107.415 621.327 107.415C624.667 107.415 626.971 106.378 628.238 104.305C629.505 102.232 630.138 99.2373 630.138 95.3213V36.4092H647.76ZM679.837 95.4941C679.837 99.0645 680.528 101.944 681.91 104.132C683.292 106.321 685.481 107.415 688.475 107.415C691.124 107.415 693.255 106.436 694.868 104.478C696.48 102.405 697.286 99.7556 697.286 96.5307V62.4964C697.286 59.7322 696.422 57.4863 694.695 55.7586C693.082 53.9158 691.009 52.9944 688.475 52.9944C685.135 52.9944 682.832 54.031 681.565 56.1042C680.413 58.1773 679.837 60.596 679.837 63.3602V95.4941ZM697.286 124V116.053C696.135 117.32 695.04 118.529 694.004 119.681C692.967 120.718 691.815 121.639 690.549 122.445C689.282 123.251 687.842 123.885 686.229 124.346C684.617 124.806 682.717 125.037 680.528 125.037C673.157 125.037 668.032 122.272 665.152 116.744C664.116 114.786 663.367 112.367 662.906 109.488C662.446 106.609 662.215 102.75 662.215 97.9128V64.5695C662.215 58.2349 662.388 53.5703 662.734 50.5757C663.425 44.817 666.131 40.4979 670.854 37.6185C673.042 36.1212 676.324 35.3726 680.701 35.3726C684.156 35.3726 687.208 36.1788 689.857 37.7913C692.622 39.2886 694.983 41.4769 696.941 44.3563H697.286V0.992774H714.908V124H697.286ZM721.935 36.4092H740.593L752.686 91.0023H753.032L764.953 36.4092H783.093L757.869 139.203C756.948 143.119 755.623 146.344 753.896 148.878C752.283 151.412 750.383 153.485 748.195 155.097C746.006 156.71 743.645 157.804 741.111 158.38C738.693 159.071 736.159 159.416 733.51 159.416H728.672V142.831H732.646C734.374 142.831 735.871 142.601 737.138 142.14C738.405 141.679 739.556 140.643 740.593 139.03C741.514 137.418 742.378 135.114 743.185 132.12C743.991 129.24 744.912 125.209 745.949 120.026L721.935 36.4092ZM845.997 124L851.007 86.856H836.495L831.485 124H819.737L824.748 86.856H815.937V76.4902H826.13L829.93 48.5026H821.292V38.1368H831.313L836.323 0.992774H848.071L843.06 38.1368H857.572L862.583 0.992774H874.33L869.32 38.1368H878.131V48.5026H867.938L864.137 76.4902H872.776V86.856H862.755L857.745 124H845.997ZM852.39 76.4902L856.19 48.5026H841.678L837.877 76.4902H852.39ZM887.473 124V0.992774H939.993V17.578H905.094V53.6855H935.501V70.2707H905.094V106.378H939.993V124H887.473ZM950.724 84.9556V67.3337H1002.73V84.9556H950.724ZM1017.53 36.4092V9.80368H1035.15V36.4092H1046.03V50.2302H1035.15V98.7766C1035.15 100.85 1035.32 102.462 1035.67 103.614C1036.13 104.766 1036.82 105.63 1037.74 106.205C1038.66 106.781 1039.76 107.127 1041.02 107.242C1042.4 107.357 1044.07 107.415 1046.03 107.415V124H1038.78C1034.75 124 1031.35 123.367 1028.58 122.1C1025.93 120.833 1023.8 119.22 1022.19 117.262C1020.58 115.304 1019.37 113.116 1018.56 110.697C1017.87 108.163 1017.53 105.745 1017.53 103.441V50.2302H1008.72V36.4092H1017.53ZM1103.75 86.856H1068.85V98.7766C1068.85 101.541 1069.6 103.672 1071.1 105.169C1072.71 106.666 1074.84 107.415 1077.49 107.415C1080.83 107.415 1083.02 106.436 1084.06 104.478C1085.21 102.52 1085.9 100.562 1086.13 98.6038H1103.75C1103.75 106.321 1101.39 112.54 1096.67 117.262C1094.37 119.681 1091.6 121.581 1088.38 122.963C1085.15 124.346 1081.52 125.037 1077.49 125.037C1071.96 125.037 1067.24 123.885 1063.33 121.581C1059.53 119.278 1056.59 116.226 1054.52 112.425C1053.25 110.121 1052.38 107.472 1051.92 104.478C1051.46 101.483 1051.23 98.2007 1051.23 94.6303V65.7789C1051.23 62.2084 1051.46 58.9259 1051.92 55.9314C1052.38 52.9368 1053.25 50.2878 1054.52 47.9843C1056.59 44.1835 1059.53 41.1314 1063.33 38.8279C1067.24 36.5244 1071.96 35.3726 1077.49 35.3726C1081.52 35.3726 1085.15 36.0637 1088.38 37.4458C1091.72 38.8279 1094.54 40.7283 1096.84 43.1469C1101.45 48.3298 1103.75 54.8372 1103.75 62.6691V86.856ZM1068.85 73.0349H1086.13V63.0147C1086.13 59.6746 1085.32 57.1983 1083.71 55.5859C1082.22 53.8582 1080.14 52.9944 1077.49 52.9944C1074.84 52.9944 1072.71 53.8582 1071.1 55.5859C1069.6 57.1983 1068.85 59.6746 1068.85 63.0147V73.0349ZM1150.07 124V115.016H1149.73C1147.42 118.241 1145.06 120.718 1142.64 122.445C1140.34 124.173 1137.06 125.037 1132.8 125.037C1130.72 125.037 1128.59 124.691 1126.41 124C1124.33 123.424 1122.32 122.272 1120.36 120.545C1118.4 118.932 1116.79 116.629 1115.52 113.634C1114.37 110.524 1113.79 106.551 1113.79 101.714C1113.79 96.761 1114.2 92.442 1115 88.7564C1115.81 84.9556 1117.31 81.7882 1119.49 79.2544C1121.57 76.8357 1124.39 75.0505 1127.96 73.8987C1131.53 72.6318 1136.08 71.9983 1141.61 71.9983C1142.18 71.9983 1142.82 71.9983 1143.51 71.9983C1144.2 71.9983 1144.83 72.0559 1145.41 72.1711C1145.98 72.2863 1146.68 72.3439 1147.48 72.3439C1148.29 72.3439 1149.15 72.4015 1150.07 72.5166V63.3602C1150.07 60.3656 1149.44 57.8894 1148.17 55.9314C1146.91 53.9734 1144.6 52.9944 1141.26 52.9944C1138.96 52.9944 1136.83 53.7431 1134.87 55.2403C1133.03 56.7376 1131.82 58.926 1131.24 61.8053H1114.14C1114.6 53.9734 1117.25 47.6388 1122.09 42.8014C1124.39 40.4979 1127.15 38.7127 1130.38 37.4458C1133.6 36.0637 1137.23 35.3726 1141.26 35.3726C1144.95 35.3726 1148.4 35.9485 1151.63 37.1002C1154.85 38.252 1157.68 39.9796 1160.09 42.2831C1162.4 44.5866 1164.24 47.466 1165.62 50.9213C1167 54.3765 1167.7 58.4077 1167.7 63.0147V124H1150.07ZM1150.07 86.3377C1148.12 85.9921 1146.5 85.8194 1145.24 85.8194C1141.44 85.8194 1138.15 86.7408 1135.39 88.5836C1132.74 90.3112 1131.42 93.5361 1131.42 98.2583C1131.42 101.598 1132.22 104.305 1133.83 106.378C1135.45 108.451 1137.69 109.488 1140.57 109.488C1143.57 109.488 1145.87 108.509 1147.48 106.551C1149.21 104.593 1150.07 101.829 1150.07 98.2583V86.3377ZM1180.67 124V36.4092H1198.29V44.8746H1198.64C1200.48 42.1104 1202.67 39.8644 1205.21 38.1368C1207.85 36.294 1211.19 35.3726 1215.23 35.3726C1219.03 35.3726 1222.19 36.294 1224.73 38.1368C1227.26 39.9796 1229.33 41.9952 1230.95 44.1835C1233.14 41.7648 1235.55 39.6917 1238.2 37.964C1240.85 36.2364 1244.54 35.3726 1249.26 35.3726C1251.45 35.3726 1253.69 35.7757 1256 36.5819C1258.3 37.273 1260.37 38.4823 1262.22 40.21C1264.06 41.9376 1265.56 44.1835 1266.71 46.9477C1267.86 49.5968 1268.44 52.8792 1268.44 56.7952V124H1250.81V63.3602C1250.81 60.1353 1250.07 57.6014 1248.57 55.7586C1247.07 53.9158 1244.94 52.9944 1242.18 52.9944C1238.84 52.9944 1236.53 54.031 1235.27 56.1042C1234 58.1773 1233.37 61.1719 1233.37 65.0878V124H1215.74V63.3602C1215.74 60.1353 1215 57.6014 1213.5 55.7586C1212 53.9158 1209.87 52.9944 1207.11 52.9944C1203.77 52.9944 1201.46 54.031 1200.2 56.1042C1198.93 58.1773 1198.29 61.1719 1198.29 65.0878V124H1180.67ZM1346.93 60.9415C1346.82 57.947 1345.84 55.701 1343.99 54.2038C1342.27 52.7065 1340.25 51.9578 1337.95 51.9578C1335.18 51.9578 1333.05 52.8792 1331.55 54.7221C1330.06 56.4497 1329.31 58.4653 1329.31 60.7688C1329.31 62.3812 1329.71 63.9937 1330.52 65.6061C1331.32 67.1034 1333.4 68.4855 1336.74 69.7524L1347.1 73.8987C1353.67 76.4326 1358.16 79.8879 1360.58 84.2645C1363.11 88.6412 1364.38 93.421 1364.38 98.6038C1364.38 102.289 1363.69 105.745 1362.31 108.97C1361.04 112.079 1359.25 114.844 1356.95 117.262C1354.65 119.681 1351.88 121.581 1348.66 122.963C1345.43 124.346 1341.92 125.037 1338.12 125.037C1330.98 125.037 1324.99 122.791 1320.15 118.299C1317.73 116.11 1315.78 113.404 1314.28 110.179C1312.78 106.839 1311.97 102.981 1311.86 98.6038H1328.44C1328.79 101.023 1329.6 103.268 1330.86 105.342C1332.25 107.415 1334.61 108.451 1337.95 108.451C1340.48 108.451 1342.73 107.645 1344.68 106.033C1346.76 104.305 1347.79 101.944 1347.79 98.9494C1347.79 96.5307 1347.16 94.4575 1345.89 92.7299C1344.63 91.0023 1342.32 89.505 1338.98 88.2381L1330.52 85.1283C1324.99 83.0552 1320.61 80.003 1317.39 75.9719C1314.28 71.8256 1312.72 66.8155 1312.72 60.9415C1312.72 57.2559 1313.41 53.8582 1314.8 50.7485C1316.18 47.5236 1318.08 44.7594 1320.5 42.4559C1322.8 40.1524 1325.51 38.4247 1328.62 37.273C1331.73 36.0061 1335.07 35.3726 1338.64 35.3726C1342.21 35.3726 1345.49 36.0061 1348.49 37.273C1351.59 38.5399 1354.24 40.3251 1356.43 42.6286C1358.62 44.9321 1360.35 47.6964 1361.62 50.9213C1362.88 54.031 1363.52 57.3711 1363.52 60.9415H1346.93ZM1375.71 36.4092V9.80368H1393.33V36.4092H1404.21V50.2302H1393.33V98.7766C1393.33 100.85 1393.5 102.462 1393.85 103.614C1394.31 104.766 1395 105.63 1395.92 106.205C1396.84 106.781 1397.93 107.127 1399.2 107.242C1400.58 107.357 1402.25 107.415 1404.21 107.415V124H1396.96C1392.92 124 1389.53 123.367 1386.76 122.1C1384.11 120.833 1381.98 119.22 1380.37 117.262C1378.76 115.304 1377.55 113.116 1376.74 110.697C1376.05 108.163 1375.71 105.745 1375.71 103.441V50.2302H1366.9V36.4092H1375.71ZM1463.66 36.4092V124H1446.04V115.535H1445.69C1443.85 118.299 1441.6 120.602 1438.95 122.445C1436.42 124.173 1433.14 125.037 1429.11 125.037C1426.92 125.037 1424.73 124.691 1422.54 124C1420.35 123.194 1418.4 121.927 1416.67 120.199C1414.94 118.472 1413.56 116.283 1412.52 113.634C1411.49 110.87 1410.97 107.53 1410.97 103.614V36.4092H1428.59V97.049C1428.59 100.274 1429.34 102.808 1430.84 104.651C1432.33 106.493 1434.46 107.415 1437.23 107.415C1440.57 107.415 1442.87 106.378 1444.14 104.305C1445.4 102.232 1446.04 99.2373 1446.04 95.3213V36.4092H1463.66ZM1495.74 95.4941C1495.74 99.0645 1496.43 101.944 1497.81 104.132C1499.19 106.321 1501.38 107.415 1504.38 107.415C1507.02 107.415 1509.16 106.436 1510.77 104.478C1512.38 102.405 1513.19 99.7556 1513.19 96.5307V62.4964C1513.19 59.7322 1512.32 57.4863 1510.59 55.7586C1508.98 53.9158 1506.91 52.9944 1504.38 52.9944C1501.04 52.9944 1498.73 54.031 1497.46 56.1042C1496.31 58.1773 1495.74 60.596 1495.74 63.3602V95.4941ZM1513.19 124V116.053C1512.03 117.32 1510.94 118.529 1509.9 119.681C1508.87 120.718 1507.72 121.639 1506.45 122.445C1505.18 123.251 1503.74 123.885 1502.13 124.346C1500.52 124.806 1498.62 125.037 1496.43 125.037C1489.06 125.037 1483.93 122.272 1481.05 116.744C1480.02 114.786 1479.27 112.367 1478.81 109.488C1478.35 106.609 1478.12 102.75 1478.12 97.9128V64.5695C1478.12 58.2349 1478.29 53.5703 1478.63 50.5757C1479.32 44.817 1482.03 40.4979 1486.75 37.6185C1488.94 36.1212 1492.22 35.3726 1496.6 35.3726C1500.06 35.3726 1503.11 36.1788 1505.76 37.7913C1508.52 39.2886 1510.88 41.4769 1512.84 44.3563H1513.19V0.992774H1530.81V124H1513.19ZM1537.83 36.4092H1556.49L1568.59 91.0023H1568.93L1580.85 36.4092H1598.99L1573.77 139.203C1572.85 143.119 1571.52 146.344 1569.8 148.878C1568.18 151.412 1566.28 153.485 1564.09 155.097C1561.91 156.71 1559.55 157.804 1557.01 158.38C1554.59 159.071 1552.06 159.416 1549.41 159.416H1544.57V142.831H1548.55C1550.27 142.831 1551.77 142.601 1553.04 142.14C1554.3 141.679 1555.46 140.643 1556.49 139.03C1557.41 137.418 1558.28 135.114 1559.08 132.12C1559.89 129.24 1560.81 125.209 1561.85 120.026L1537.83 36.4092Z" fill="white" fill-opacity="0.3"/>
</svg>
