<svg width="151" height="156" viewBox="0 0 151 156" fill="none" xmlns="http://www.w3.org/2000/svg">
<path d="M115.095 45.3314L121.605 41.3489L119.701 39.1256L113.191 43.1081L111.652 41.3057L118.162 37.3233L117 35.9742L118.627 34.6467L119.967 36.2116L124.871 33.2113L123.731 31.8838L125.359 30.5563L126.676 32.0997L133.186 28.1172L134.725 29.9195L128.215 33.902L130.119 36.1253L136.629 32.1428L138.168 33.9452L131.658 37.9276L132.809 39.2767L131.182 40.6042L129.842 39.0393L124.938 42.0396L126.067 43.3671L124.44 44.6946L123.122 43.1513L116.612 47.1337L115.073 45.3314H115.095ZM123.421 40.2265L128.326 37.2261L126.421 35.0029L121.517 38.0032L123.421 40.2265Z" fill="white"/>
<path d="M119.545 50.8904L141.975 39.6445L146.902 48.9801L143.879 50.4911L140.602 44.2853L134.015 47.5879L136.871 52.995L133.849 54.5059L130.993 49.0988L124.405 52.4014L127.682 58.6071L124.472 60.2152L119.545 50.8796V50.8904Z" fill="white"/>
<path d="M132.479 59.1144L135.977 58.251L138.601 68.3313L135.102 69.1947L132.479 59.1144Z" fill="white"/>
<path d="M145.299 71.8607L150.746 71.4829L151.001 75.0013L145.553 75.379L145.708 77.5483L142.885 77.7426L142.719 75.5733L132.788 76.2748C132.368 76.3072 132.036 76.372 131.803 76.4691C131.571 76.5662 131.404 76.7065 131.305 76.9008C131.205 77.0951 131.15 77.3217 131.139 77.5915C131.139 77.8613 131.139 78.1851 131.172 78.5736L127.784 78.8111L127.673 77.3649C127.618 76.5662 127.696 75.8755 127.917 75.3251C128.138 74.7639 128.437 74.3106 128.814 73.9652C129.19 73.6198 129.622 73.35 130.12 73.1666C130.618 72.9831 131.094 72.8752 131.571 72.8428L142.454 72.0765L142.321 70.3173L145.144 70.123L145.277 71.8822L145.299 71.8607Z" fill="white"/>
<path d="M134.495 90.0464L135.181 83.1068L132.745 82.8801C132.181 82.8262 131.727 82.9449 131.395 83.2255C131.063 83.5061 130.863 83.9054 130.808 84.4342C130.741 85.1034 130.896 85.5567 131.273 85.8157C131.649 86.0747 132.037 86.2366 132.435 86.323L132.092 89.8305C130.52 89.6794 129.291 89.0966 128.428 88.0606C127.974 87.5533 127.642 86.9705 127.431 86.3014C127.221 85.6322 127.143 84.8983 127.221 84.0997C127.332 82.9988 127.653 82.0923 128.206 81.3692C128.749 80.6461 129.435 80.1172 130.254 79.7719C130.753 79.5668 131.306 79.4481 131.926 79.4049C132.546 79.3725 133.221 79.3833 133.952 79.4589L139.842 80.0093C140.573 80.074 141.237 80.182 141.835 80.3331C142.433 80.4842 142.964 80.7 143.407 81.0022C144.138 81.4879 144.702 82.1354 145.101 82.9449C145.499 83.7543 145.632 84.7149 145.533 85.8157C145.455 86.6144 145.245 87.3267 144.89 87.9634C144.536 88.6002 144.104 89.1074 143.562 89.5176C142.411 90.3378 141.038 90.6724 139.443 90.5213L134.506 90.0572L134.495 90.0464ZM138.004 83.3658L137.661 86.8086L139.709 87.0029C140.396 87.0676 140.916 86.9597 141.292 86.6791C141.658 86.3985 141.879 85.9992 141.923 85.4703C141.979 84.9415 141.846 84.5098 141.536 84.1644C141.226 83.8191 140.728 83.6248 140.052 83.5601L138.004 83.3658Z" fill="white"/>
<path d="M124.462 96.9741L126.211 97.5353L126.233 97.4705C125.757 96.8338 125.414 96.2294 125.237 95.679C125.049 95.1178 125.093 94.4378 125.37 93.6284C125.503 93.2399 125.702 92.8513 125.957 92.4844C126.211 92.1174 126.577 91.8044 127.042 91.5454C127.484 91.2756 128.038 91.1137 128.713 91.0813C129.389 91.0382 130.197 91.1677 131.138 91.4699C132.101 91.7829 132.92 92.1282 133.607 92.5167C134.282 92.9053 134.802 93.3802 135.157 93.9522C135.5 94.4918 135.666 95.1501 135.677 95.8948C135.677 96.6503 135.511 97.5461 135.157 98.6038C135.124 98.7117 135.079 98.8304 135.035 98.9599C134.991 99.0894 134.935 99.2082 134.88 99.3053C134.825 99.4024 134.769 99.5319 134.714 99.683C134.659 99.8341 134.592 99.996 134.515 100.169L136.297 100.741C136.884 100.924 137.404 100.957 137.869 100.838C138.334 100.719 138.666 100.341 138.888 99.7046C139.032 99.2621 139.021 98.8196 138.855 98.3663C138.688 97.913 138.334 97.5353 137.814 97.2547L138.91 94.0061C140.404 94.5781 141.467 95.4847 142.109 96.7043C142.408 97.2871 142.586 97.9238 142.641 98.6146C142.696 99.3053 142.586 100.039 142.331 100.805C142.098 101.507 141.766 102.122 141.334 102.662C140.903 103.201 140.382 103.633 139.784 103.946C139.187 104.237 138.511 104.41 137.747 104.453C136.983 104.497 136.153 104.378 135.256 104.097L123.377 100.298L124.506 96.9525L124.462 96.9741ZM131.802 99.3161C131.99 98.9707 132.134 98.6685 132.212 98.4311C132.455 97.708 132.489 97.0388 132.311 96.4129C132.134 95.7869 131.592 95.3228 130.673 95.0314C130.02 94.8264 129.444 94.8048 128.935 94.9882C128.425 95.1609 128.082 95.5279 127.894 96.0783C127.706 96.6503 127.739 97.1468 128.016 97.5893C128.293 98.0318 128.78 98.3555 129.477 98.5822L131.802 99.3269V99.3161Z" fill="white"/>
<path d="M123.344 101.433L138.135 111.362L136.087 114.265L134.659 113.304L134.614 113.358C134.869 113.974 134.991 114.6 134.991 115.226C134.991 115.852 134.758 116.499 134.293 117.168C133.85 117.794 133.33 118.215 132.721 118.42C132.112 118.625 131.536 118.744 130.972 118.755C131.127 119.391 131.193 120.017 131.182 120.654C131.171 121.291 130.883 121.993 130.33 122.77C130.075 123.126 129.754 123.46 129.355 123.752C128.957 124.043 128.514 124.248 128.005 124.356C127.495 124.464 126.953 124.453 126.355 124.345C125.768 124.227 125.137 123.946 124.473 123.503L113.125 115.884L115.173 112.981L125.414 119.856C125.957 120.223 126.477 120.384 126.964 120.352C127.451 120.309 127.85 120.071 128.171 119.618C128.558 119.068 128.647 118.571 128.448 118.129C128.248 117.686 127.817 117.244 127.152 116.801L117.199 110.121L119.247 107.217L129.488 114.092C130.031 114.459 130.551 114.621 131.038 114.589C131.525 114.546 131.924 114.308 132.245 113.844C132.632 113.294 132.721 112.797 132.522 112.355C132.322 111.912 131.891 111.47 131.226 111.027L121.273 104.347L123.322 101.443L123.344 101.433Z" fill="white"/>
<path d="M108.853 134.384C109.207 134.869 109.628 135.139 110.093 135.204C110.569 135.258 111.001 135.161 111.399 134.912C111.875 134.61 112.141 134.232 112.196 133.768C112.252 133.304 112.152 132.883 111.897 132.495C111.72 132.225 111.466 131.998 111.156 131.836C110.846 131.664 110.325 131.653 109.617 131.804L107.369 132.247C105.952 132.538 104.79 132.452 103.882 131.998C102.963 131.534 102.221 130.876 101.634 130.002C101.225 129.387 100.948 128.739 100.826 128.059C100.693 127.379 100.693 126.721 100.826 126.062C100.948 125.404 101.214 124.789 101.612 124.206C102.011 123.623 102.531 123.127 103.184 122.706C104.413 121.929 105.686 121.648 107.026 121.875C107.69 121.972 108.332 122.22 108.952 122.609C109.584 122.997 110.148 123.548 110.657 124.271L107.812 126.084C107.48 125.717 107.081 125.436 106.628 125.231C106.163 125.026 105.653 125.113 105.078 125.48C104.646 125.76 104.347 126.149 104.192 126.645C104.037 127.142 104.125 127.649 104.458 128.145C104.734 128.556 105.066 128.825 105.476 128.976C105.886 129.128 106.45 129.128 107.17 128.976L108.975 128.566C110.159 128.307 111.244 128.35 112.252 128.685C113.259 129.02 114.09 129.689 114.743 130.671C115.152 131.286 115.418 131.934 115.54 132.614C115.662 133.293 115.639 133.963 115.484 134.61C115.352 135.247 115.075 135.841 114.676 136.38C114.278 136.92 113.768 137.384 113.16 137.783C112.551 138.172 111.908 138.431 111.244 138.549C110.58 138.668 109.927 138.657 109.296 138.517C108.665 138.366 108.056 138.096 107.491 137.708C106.915 137.319 106.428 136.823 106.03 136.218L108.875 134.405L108.853 134.384Z" fill="white"/>
<path d="M104.679 142.163L106.871 147.031L103.561 148.445L101.369 143.577L99.3206 144.451L98.1803 141.926L100.228 141.052L96.2318 132.159C96.0657 131.781 95.8886 131.5 95.7225 131.317C95.5564 131.133 95.3572 131.036 95.1357 131.004C94.9143 130.971 94.6707 131.004 94.4161 131.079C94.1615 131.166 93.8404 131.284 93.475 131.446L92.1133 128.414L93.475 127.831C94.2279 127.507 94.9143 127.356 95.5343 127.367C96.1432 127.378 96.6857 127.507 97.1507 127.734C97.6157 127.96 98.0253 128.273 98.3685 128.673C98.7117 129.061 98.9774 129.471 99.1657 129.892L103.55 139.638L105.211 138.926L106.351 141.451L104.701 142.163H104.679Z" fill="white"/>
<path d="M85.5469 148.152L81.3398 131.132L84.8494 130.312L85.2591 131.952L85.3255 131.931C85.558 131.305 85.8901 130.765 86.3219 130.29C86.7537 129.815 87.3737 129.492 88.1708 129.308C88.6026 129.211 89.0565 129.179 89.5325 129.222C90.0086 129.265 90.4515 129.416 90.8832 129.664C91.315 129.923 91.6914 130.29 92.0346 130.765C92.3778 131.24 92.6325 131.866 92.8207 132.622L96.0424 145.681L92.5328 146.501L89.6211 134.715C89.4661 134.089 89.2004 133.636 88.8129 133.345C88.4254 133.053 87.9604 132.978 87.4069 133.107C86.7426 133.269 86.333 133.571 86.178 134.035C86.023 134.499 86.0451 135.104 86.2333 135.87L89.0565 147.321L85.5469 148.141V148.152Z" fill="white"/>
<path d="M72.5832 131.371L72.6053 132.958C72.8378 132.699 73.0592 132.461 73.2696 132.234C73.4799 132.008 73.7124 131.814 73.9671 131.652C74.2217 131.49 74.5206 131.349 74.8417 131.252C75.1738 131.155 75.5613 131.101 76.0042 131.09C77.5209 131.069 78.5727 131.598 79.1816 132.699C79.403 133.087 79.558 133.573 79.6688 134.145C79.7795 134.717 79.8348 135.494 79.8459 136.454L79.9566 143.124C79.9788 144.387 79.9566 145.326 79.9013 145.919C79.7795 147.074 79.237 147.948 78.2849 148.531C77.842 148.833 77.1667 148.995 76.2699 149.017C75.5613 149.028 74.9303 148.887 74.3656 148.585C73.801 148.283 73.3249 147.851 72.9042 147.279H72.8378L72.9817 155.946L69.3725 156L68.9629 131.414L72.5721 131.36L72.5832 131.371ZM76.2588 137.016C76.2477 136.303 76.0928 135.731 75.8049 135.3C75.5171 134.868 75.0631 134.652 74.4431 134.663C73.9007 134.663 73.4689 134.879 73.1478 135.289C72.8267 135.699 72.6717 136.228 72.6828 136.865L72.7935 143.664C72.7935 144.214 72.9817 144.668 73.3249 145.024C73.6792 145.38 74.111 145.542 74.6313 145.542C75.3178 145.542 75.7828 145.315 76.0153 144.894C76.2588 144.473 76.3695 143.988 76.3585 143.437L76.2477 137.016H76.2588Z" fill="white"/>
<path d="M64.9004 148.563L61.1583 147.775L61.1029 136.594H61.0365L56.2759 146.739L52.6445 145.973L62.1547 126.957C62.509 126.233 62.9075 125.651 63.3504 125.23C63.7932 124.809 64.2693 124.485 64.7786 124.258C65.2879 124.032 65.8082 123.913 66.3286 123.891C66.8489 123.87 67.3803 123.924 67.9117 124.032L68.886 124.237L68.1664 127.475L67.3693 127.302C67.026 127.226 66.716 127.216 66.4393 127.248C66.1625 127.28 65.8857 127.442 65.6089 127.712C65.3543 127.993 65.0886 128.392 64.7897 128.932C64.5018 129.471 64.1365 130.227 63.7047 131.198L64.8893 148.552L64.9004 148.563Z" fill="white"/>
<path d="M36.0483 110.883L29.5606 114.898L31.4759 117.122L37.9636 113.107L39.5136 114.898L33.0259 118.913L34.1884 120.262L32.5609 121.6L31.2102 120.046L26.3167 123.068L27.4571 124.385L25.8296 125.723L24.501 124.191L18.0133 128.206L16.4633 126.414L22.9511 122.388L21.0358 120.165L14.548 124.191L12.998 122.399L19.4858 118.384L18.3233 117.035L19.9508 115.697L21.3015 117.251L26.1949 114.229L25.0546 112.912L26.6821 111.574L28.0106 113.107L34.4984 109.081L36.0483 110.873V110.883ZM27.756 116.031L22.8625 119.053L24.7778 121.277L29.6713 118.255L27.756 116.031Z" fill="white"/>
<path d="M31.5979 105.38L9.234 116.756L4.25195 107.452L7.26332 105.92L10.5736 112.104L17.1389 108.769L14.2603 103.384L17.2717 101.851L20.1613 107.237L26.7265 103.902L23.4162 97.7176L26.6158 96.0879L31.5979 105.391V105.38Z" fill="white"/>
<path d="M18.5996 97.1983L15.1011 98.0833L12.4219 88.0246L15.9204 87.1396L18.5996 97.1983Z" fill="white"/>
<path d="M5.71275 84.5377L0.27678 84.9479L0 81.4403L5.43597 81.0301L5.25883 78.8608L8.08199 78.645L8.25913 80.8143L18.1789 80.0588C18.5996 80.0264 18.9318 79.9617 19.1532 79.8646C19.3857 79.7674 19.5518 79.6163 19.6514 79.4329C19.7511 79.2386 19.8064 79.0119 19.8064 78.7421C19.8064 78.4723 19.7953 78.1485 19.7621 77.76L23.1499 77.501L23.2606 78.9472C23.3271 79.7458 23.2606 80.4366 23.0281 80.987C22.8178 81.5482 22.5189 82.0015 22.1424 82.3576C21.766 82.7138 21.3342 82.9836 20.836 83.1671C20.3378 83.3506 19.8618 83.4693 19.3857 83.5017L8.5027 84.3219L8.64662 86.0811L5.82346 86.2969L5.67953 84.5377H5.71275Z" fill="white"/>
<path d="M16.4187 66.2885L15.7655 73.2389L18.2012 73.4547C18.7658 73.5087 19.2197 73.39 19.5519 73.1094C19.884 72.8288 20.0833 72.4187 20.1276 71.8898C20.194 71.2207 20.0279 70.7674 19.6515 70.5084C19.2751 70.2493 18.8876 70.0875 18.489 70.0011L18.8212 66.4935C20.3933 66.6338 21.6222 67.2166 22.4968 68.2419C22.9507 68.7492 23.2829 69.332 23.5043 70.0011C23.7257 70.6703 23.8032 71.4041 23.7257 72.2028C23.6261 73.3036 23.305 74.221 22.7625 74.9441C22.22 75.6672 21.5447 76.2068 20.7254 76.5522C20.2272 76.7681 19.6737 76.8868 19.0537 76.9192C18.4337 76.9623 17.7583 76.9407 17.0276 76.876L11.1378 76.3472C10.4071 76.2824 9.74278 76.1745 9.14494 76.0342C8.54709 75.8939 8.01567 75.6672 7.57283 75.3758C6.83105 74.8901 6.26642 74.2534 5.86786 73.4332C5.46929 72.6237 5.32537 71.6632 5.42501 70.5623C5.50251 69.7637 5.71286 69.0406 6.05607 68.4146C6.39928 67.7886 6.84213 67.2706 7.37354 66.8497C8.51388 66.0294 9.88671 65.6841 11.492 65.8244L16.4298 66.2669L16.4187 66.2885ZM12.9424 72.9799L13.2634 69.537L11.2153 69.3535C10.5288 69.2888 10.0085 69.3967 9.64314 69.6773C9.27779 69.9579 9.06744 70.3573 9.01208 70.8861C8.9678 71.4149 9.08958 71.8466 9.41065 72.192C9.72064 72.5266 10.2188 72.7316 10.9053 72.7964L12.9534 72.9799H12.9424Z" fill="white"/>
<path d="M26.3956 59.3277L24.6463 58.7773L24.6242 58.8421C25.1113 59.4788 25.4435 60.0724 25.6317 60.6228C25.8199 61.1733 25.7756 61.864 25.5099 62.6734C25.377 63.0728 25.1888 63.4505 24.9342 63.8175C24.6795 64.1844 24.3142 64.4974 23.8603 64.7672C23.4285 65.037 22.8639 65.1989 22.1996 65.2421C21.5242 65.2852 20.716 65.1557 19.775 64.8643C18.8118 64.5621 17.9815 64.2168 17.3061 63.839C16.6308 63.4613 16.1104 62.9756 15.7451 62.4036C15.4019 61.864 15.2247 61.2164 15.2136 60.461C15.2026 59.7055 15.3686 58.8097 15.7119 57.752C15.7451 57.6441 15.7894 57.5254 15.8336 57.3959C15.8779 57.2664 15.9222 57.1476 15.9886 57.0397C16.044 56.9426 16.0993 56.8131 16.1547 56.6512C16.2101 56.4893 16.2654 56.3382 16.354 56.1655L14.5715 55.6043C13.9847 55.4208 13.4644 55.3884 12.9994 55.5072C12.5344 55.6259 12.2023 56.0036 11.9919 56.6404C11.848 57.0829 11.8591 57.5254 12.0362 57.9787C12.2133 58.432 12.5566 58.7989 13.088 59.0903L12.0141 62.3497C10.5194 61.7884 9.44554 60.8927 8.80341 59.6731C8.49342 59.0903 8.31628 58.4535 8.26092 57.7628C8.20557 57.0721 8.30521 56.3382 8.55984 55.5719C8.79234 54.8704 9.12448 54.2444 9.54518 53.7048C9.97696 53.1652 10.4862 52.7335 11.0841 52.4097C11.6819 52.1075 12.3573 51.9348 13.1212 51.8809C13.8851 51.8269 14.7154 51.9456 15.6122 52.2262L27.5138 55.9604L26.4066 59.3169L26.3956 59.3277ZM19.0443 57.0289C18.8561 57.3851 18.7232 57.6765 18.6347 57.9139C18.4022 58.637 18.3689 59.3062 18.5461 59.9321C18.7232 60.5581 19.2768 61.0114 20.1957 61.3028C20.8489 61.5078 21.4246 61.5186 21.9339 61.3352C22.4432 61.1517 22.7864 60.7955 22.9635 60.2451C23.1517 59.6731 23.1074 59.1766 22.8306 58.7341C22.5539 58.3024 22.0667 57.9679 21.3692 57.752L19.0443 57.0181V57.0289Z" fill="white"/>
<path d="M27.4988 54.8255L12.6523 44.9719L14.6894 42.0579L16.1287 43.0077L16.173 42.9537C15.9184 42.3385 15.7855 41.7125 15.7855 41.0866C15.7855 40.4606 16.018 39.813 16.483 39.1439C16.9258 38.5179 17.4462 38.097 18.044 37.8812C18.6529 37.6653 19.2286 37.5574 19.7822 37.5358C19.6272 36.8991 19.5497 36.2731 19.5608 35.6363C19.5719 34.9996 19.8486 34.298 20.4022 33.521C20.6568 33.1648 20.9779 32.8302 21.3654 32.5388C21.764 32.2474 22.2068 32.0424 22.7161 31.9345C23.2254 31.8265 23.7678 31.8265 24.3657 31.9345C24.9525 32.0532 25.5835 32.323 26.2478 32.7655L37.6401 40.3311L35.603 43.2451L25.3289 36.4242C24.7864 36.0572 24.2661 35.8953 23.7789 35.9385C23.2918 35.9817 22.8932 36.2299 22.5722 36.6832C22.1847 37.2336 22.0961 37.7301 22.2954 38.1726C22.5057 38.6151 22.9375 39.0576 23.6018 39.5001L33.588 46.1267L31.5509 49.0407L21.2768 42.2198C20.7343 41.8528 20.214 41.691 19.7269 41.7341C19.2397 41.7773 18.8412 42.0255 18.5201 42.4788C18.1326 43.0292 18.044 43.5257 18.2544 43.9682C18.4537 44.4107 18.8965 44.8532 19.5608 45.2957L29.547 51.9223L27.5099 54.8363L27.4988 54.8255Z" fill="white"/>
<path d="M41.7723 21.8228C41.418 21.3371 40.9973 21.0673 40.5213 21.0133C40.0452 20.9594 39.6134 21.0565 39.2149 21.3155C38.7388 21.6177 38.4731 22.0063 38.4288 22.4703C38.3734 22.9344 38.4731 23.3553 38.7388 23.7439C38.927 24.0137 39.1706 24.2295 39.4806 24.4022C39.7906 24.5749 40.3109 24.5749 41.0195 24.4238L43.2669 23.9705C44.673 23.6683 45.8354 23.7439 46.7544 24.208C47.6733 24.6612 48.4261 25.3304 49.0129 26.1938C49.4336 26.809 49.6993 27.4565 49.8322 28.1257C49.965 28.7948 49.965 29.4639 49.8543 30.1223C49.7325 30.7806 49.4779 31.4066 49.0793 31.9894C48.6807 32.5722 48.1604 33.0795 47.5072 33.5004C46.2894 34.2882 45.0051 34.5688 43.6766 34.353C43.0123 34.2559 42.3702 34.0184 41.7391 33.6299C41.108 33.2521 40.5434 32.7017 40.0231 31.9786L42.8573 30.1547C43.1894 30.5216 43.588 30.8022 44.053 31.0073C44.518 31.2123 45.0272 31.126 45.6029 30.7591C46.0347 30.4785 46.3336 30.0899 46.4886 29.5935C46.6436 29.097 46.5551 28.5897 46.2119 28.0933C45.9351 27.694 45.5919 27.4134 45.1822 27.2623C44.7726 27.1112 44.208 27.122 43.4883 27.2731L41.6837 27.6832C40.4991 27.9422 39.4141 27.9098 38.4067 27.5752C37.3992 27.2407 36.5688 26.5823 35.9046 25.611C35.4839 24.9958 35.2181 24.3483 35.0964 23.6683C34.9746 22.9884 34.9856 22.3193 35.1406 21.6717C35.2735 21.0349 35.5392 20.4413 35.9378 19.9017C36.3363 19.3621 36.8345 18.8872 37.4435 18.4987C38.0524 18.1101 38.6945 17.8511 39.3588 17.7216C40.0231 17.5921 40.6763 17.6029 41.3073 17.7432C41.9384 17.8835 42.5473 18.1533 43.123 18.5418C43.6987 18.9304 44.1858 19.4268 44.5955 20.0204L41.7612 21.8444L41.7723 21.8228Z" fill="white"/>
<path d="M45.9467 13.9981L43.7324 9.14147L47.0316 7.70605L49.2459 12.5627L51.283 11.6777L52.4344 14.2032L50.3973 15.0882L54.4383 23.9597C54.6154 24.3374 54.7815 24.618 54.9586 24.7907C55.1247 24.9634 55.324 25.0713 55.5454 25.1037C55.7668 25.1361 56.0104 25.1037 56.265 25.0174C56.5197 24.931 56.8297 24.8123 57.2061 24.6504L58.59 27.6831L57.2282 28.2767C56.4754 28.6005 55.789 28.7624 55.1801 28.7516C54.5711 28.7408 54.0287 28.6221 53.5637 28.3954C53.0987 28.1688 52.689 27.8558 52.3458 27.4673C52.0026 27.0788 51.7258 26.6686 51.5376 26.2477L47.0981 16.5236L45.4485 17.2359L44.2971 14.7104L45.9467 13.9981Z" fill="white"/>
<path d="M65.0326 7.91113L69.3283 24.9095L65.8187 25.7513L65.398 24.1108L65.3315 24.1324C65.0991 24.7584 64.7669 25.3088 64.3462 25.7729C63.9144 26.2477 63.3055 26.5715 62.4973 26.7658C62.0655 26.8737 61.6116 26.9061 61.1356 26.8629C60.6595 26.8197 60.2166 26.6794 59.7849 26.4204C59.3531 26.1722 58.9767 25.8052 58.6335 25.3304C58.2903 24.8555 58.0245 24.2403 57.8363 23.474L54.5371 10.4258L58.0467 9.58398L61.0248 21.3587C61.1798 21.9847 61.4566 22.438 61.8441 22.7294C62.2316 23.0208 62.6966 23.0963 63.2502 22.956C63.9144 22.7941 64.3241 22.4811 64.4791 22.017C64.6341 21.553 64.6119 20.9378 64.4126 20.1823L61.5231 8.75295L65.0326 7.91113Z" fill="white"/>
<path d="M78.0733 24.6287L78.0512 23.0422C77.8187 23.3012 77.5973 23.5386 77.3869 23.7653C77.1766 23.9919 76.9441 24.1862 76.6894 24.3481C76.4348 24.51 76.1359 24.6503 75.8148 24.7474C75.4827 24.8445 75.0952 24.8985 74.6523 24.9093C73.1356 24.9309 72.0838 24.402 71.4749 23.3012C71.2535 22.9127 71.0985 22.427 70.9877 21.855C70.877 21.283 70.8217 20.5059 70.8106 19.5454L70.6999 12.8756C70.6777 11.6128 70.6999 10.6739 70.7552 10.0803C70.877 8.92547 71.4195 8.05127 72.3716 7.46847C72.8145 7.16628 73.4898 7.00439 74.3866 6.9828C75.0952 6.97201 75.7262 7.11231 76.2909 7.41451C76.8555 7.7167 77.3316 8.1484 77.7523 8.72041H77.8187L77.6748 0.0539629L81.284 0L81.6936 24.5855L78.0844 24.6395L78.0733 24.6287ZM74.3977 18.9842C74.4087 19.6965 74.5638 20.2685 74.8516 20.7002C75.1395 21.1319 75.5934 21.3477 76.2134 21.3369C76.7558 21.3369 77.1876 21.1211 77.5087 20.711C77.8298 20.3009 77.9848 19.772 77.9737 19.1353L77.863 12.3359C77.863 11.7855 77.6748 11.3322 77.3316 10.9761C76.9773 10.6199 76.5455 10.458 76.0251 10.458C75.3387 10.458 74.8737 10.6847 74.6412 11.1056C74.3977 11.5265 74.287 12.0121 74.298 12.5626L74.4088 18.9842H74.3977Z" fill="white"/>
<path d="M85.6575 7.38184L89.3995 8.14811L89.5213 19.3292H89.5878L94.2819 9.15182L97.9244 9.89651L88.5249 28.967C88.1706 29.6901 87.7831 30.2729 87.3403 30.7046C86.8974 31.1363 86.4214 31.4601 85.9121 31.6867C85.4028 31.9134 84.8936 32.0321 84.3621 32.0537C83.8418 32.0753 83.3104 32.0321 82.779 31.9242L81.8047 31.7299L82.5022 28.4813L83.2993 28.6432C83.6425 28.7188 83.9525 28.7296 84.2293 28.6972C84.5061 28.654 84.7828 28.5029 85.0486 28.2331C85.3032 27.9525 85.5689 27.5424 85.8567 27.0028C86.1446 26.4631 86.4989 25.7077 86.9196 24.7363L85.6353 7.39263L85.6575 7.38184Z" fill="white"/>
</svg>
