<svg width="154" height="154" viewBox="0 0 154 154" fill="none" xmlns="http://www.w3.org/2000/svg">
<path d="M118.095 43.3314L124.605 39.3489L122.701 37.1256L116.191 41.1081L114.652 39.3057L121.162 35.3233L120 33.9742L121.627 32.6467L122.967 34.2116L127.871 31.2113L126.731 29.8838L128.359 28.5563L129.676 30.0997L136.186 26.1172L137.725 27.9195L131.215 31.902L133.119 34.1253L139.629 30.1428L141.168 31.9452L134.658 35.9276L135.809 37.2767L134.182 38.6042L132.842 37.0393L127.938 40.0396L129.067 41.3671L127.44 42.6946L126.122 41.1513L119.612 45.1337L118.073 43.3314H118.095ZM126.421 38.2265L131.326 35.2261L129.421 33.0029L124.517 36.0032L126.421 38.2265Z" fill="white"/>
<path d="M122.545 48.8904L144.975 37.6445L149.902 46.9801L146.879 48.4911L143.602 42.2853L137.015 45.5879L139.871 50.995L136.849 52.5059L133.993 47.0988L127.405 50.4014L130.682 56.6071L127.472 58.2152L122.545 48.8796V48.8904Z" fill="white"/>
<path d="M135.479 57.1144L138.977 56.251L141.601 66.3313L138.102 67.1947L135.479 57.1144Z" fill="white"/>
<path d="M148.299 69.8607L153.746 69.4829L154.001 73.0013L148.553 73.379L148.708 75.5483L145.885 75.7426L145.719 73.5733L135.788 74.2748C135.368 74.3072 135.036 74.372 134.803 74.4691C134.571 74.5662 134.404 74.7065 134.305 74.9008C134.205 75.0951 134.15 75.3217 134.139 75.5915C134.139 75.8613 134.139 76.1851 134.172 76.5736L130.784 76.8111L130.673 75.3649C130.618 74.5662 130.696 73.8755 130.917 73.3251C131.138 72.7639 131.437 72.3106 131.814 71.9652C132.19 71.6198 132.622 71.35 133.12 71.1666C133.618 70.9831 134.094 70.8752 134.571 70.8428L145.454 70.0765L145.321 68.3173L148.144 68.123L148.277 69.8822L148.299 69.8607Z" fill="white"/>
<path d="M137.495 88.0464L138.181 81.1068L135.745 80.8801C135.181 80.8262 134.727 80.9449 134.395 81.2255C134.063 81.5061 133.863 81.9054 133.808 82.4342C133.741 83.1034 133.896 83.5567 134.273 83.8157C134.649 84.0747 135.037 84.2366 135.435 84.323L135.092 87.8305C133.52 87.6794 132.291 87.0966 131.428 86.0606C130.974 85.5533 130.642 84.9705 130.431 84.3014C130.221 83.6322 130.143 82.8983 130.221 82.0997C130.332 80.9988 130.653 80.0923 131.206 79.3692C131.749 78.6461 132.435 78.1172 133.254 77.7719C133.753 77.5668 134.306 77.4481 134.926 77.4049C135.546 77.3725 136.221 77.3833 136.952 77.4589L142.842 78.0093C143.573 78.074 144.237 78.182 144.835 78.3331C145.433 78.4842 145.964 78.7 146.407 79.0022C147.138 79.4879 147.702 80.1354 148.101 80.9449C148.499 81.7543 148.632 82.7149 148.533 83.8157C148.455 84.6144 148.245 85.3267 147.89 85.9634C147.536 86.6002 147.104 87.1074 146.562 87.5176C145.411 88.3378 144.038 88.6724 142.443 88.5213L137.506 88.0572L137.495 88.0464ZM141.004 81.3658L140.661 84.8086L142.709 85.0029C143.396 85.0676 143.916 84.9597 144.292 84.6791C144.658 84.3985 144.879 83.9992 144.923 83.4703C144.979 82.9415 144.846 82.5098 144.536 82.1644C144.226 81.8191 143.728 81.6248 143.052 81.5601L141.004 81.3658Z" fill="white"/>
<path d="M127.462 94.9741L129.211 95.5353L129.233 95.4705C128.757 94.8338 128.414 94.2294 128.237 93.679C128.049 93.1178 128.093 92.4378 128.37 91.6284C128.503 91.2399 128.702 90.8513 128.957 90.4844C129.211 90.1174 129.577 89.8044 130.042 89.5454C130.484 89.2756 131.038 89.1137 131.713 89.0813C132.389 89.0382 133.197 89.1677 134.138 89.4699C135.101 89.7829 135.92 90.1282 136.607 90.5167C137.282 90.9053 137.802 91.3802 138.157 91.9522C138.5 92.4918 138.666 93.1501 138.677 93.8948C138.677 94.6503 138.511 95.5461 138.157 96.6038C138.124 96.7117 138.079 96.8304 138.035 96.9599C137.991 97.0894 137.935 97.2081 137.88 97.3053C137.825 97.4024 137.769 97.5319 137.714 97.683C137.659 97.8341 137.592 97.996 137.515 98.1687L139.297 98.7407C139.884 98.9242 140.404 98.9565 140.869 98.8378C141.334 98.7191 141.666 98.3414 141.888 97.7046C142.032 97.2621 142.021 96.8196 141.855 96.3663C141.688 95.913 141.334 95.5353 140.814 95.2547L141.91 92.0061C143.404 92.5781 144.467 93.4847 145.109 94.7043C145.408 95.2871 145.586 95.9238 145.641 96.6146C145.696 97.3053 145.586 98.0392 145.331 98.8055C145.098 99.507 144.766 100.122 144.334 100.662C143.903 101.201 143.382 101.633 142.784 101.946C142.187 102.237 141.511 102.41 140.747 102.453C139.983 102.497 139.153 102.378 138.256 102.097L126.377 98.2982L127.506 94.9525L127.462 94.9741ZM134.802 97.3161C134.99 96.9707 135.134 96.6685 135.212 96.4311C135.455 95.708 135.489 95.0388 135.311 94.4129C135.134 93.7869 134.592 93.3228 133.673 93.0314C133.02 92.8264 132.444 92.8048 131.935 92.9882C131.425 93.1609 131.082 93.5279 130.894 94.0783C130.706 94.6503 130.739 95.1468 131.016 95.5893C131.293 96.0318 131.78 96.3555 132.477 96.5822L134.802 97.3269V97.3161Z" fill="white"/>
<path d="M126.344 99.4326L141.135 109.362L139.087 112.265L137.659 111.304L137.614 111.358C137.869 111.974 137.991 112.6 137.991 113.226C137.991 113.852 137.758 114.499 137.293 115.168C136.85 115.794 136.33 116.215 135.721 116.42C135.112 116.625 134.536 116.744 133.972 116.755C134.127 117.391 134.193 118.017 134.182 118.654C134.171 119.291 133.883 119.993 133.33 120.77C133.075 121.126 132.754 121.46 132.355 121.752C131.957 122.043 131.514 122.248 131.005 122.356C130.495 122.464 129.953 122.453 129.355 122.345C128.768 122.227 128.137 121.946 127.473 121.503L116.125 113.884L118.173 110.981L128.414 117.856C128.957 118.223 129.477 118.384 129.964 118.352C130.451 118.309 130.85 118.071 131.171 117.618C131.558 117.068 131.647 116.571 131.448 116.129C131.248 115.686 130.817 115.244 130.152 114.801L120.199 108.121L122.247 105.217L132.488 112.092C133.031 112.459 133.551 112.621 134.038 112.589C134.525 112.546 134.924 112.308 135.245 111.844C135.632 111.294 135.721 110.797 135.522 110.355C135.322 109.912 134.891 109.47 134.226 109.027L124.273 102.347L126.322 99.4434L126.344 99.4326Z" fill="white"/>
<path d="M111.853 132.384C112.207 132.869 112.628 133.139 113.093 133.204C113.569 133.258 114.001 133.161 114.399 132.912C114.875 132.61 115.141 132.232 115.196 131.768C115.252 131.304 115.152 130.883 114.897 130.495C114.72 130.225 114.466 129.998 114.156 129.836C113.846 129.664 113.325 129.653 112.617 129.804L110.369 130.247C108.952 130.538 107.79 130.452 106.882 129.998C105.963 129.534 105.221 128.876 104.634 128.002C104.225 127.387 103.948 126.739 103.826 126.059C103.693 125.379 103.693 124.721 103.826 124.062C103.948 123.404 104.214 122.789 104.612 122.206C105.011 121.623 105.531 121.127 106.184 120.706C107.413 119.929 108.686 119.648 110.026 119.875C110.69 119.972 111.332 120.22 111.952 120.609C112.584 120.997 113.148 121.548 113.657 122.271L110.812 124.084C110.48 123.717 110.081 123.436 109.628 123.231C109.163 123.026 108.653 123.113 108.078 123.48C107.646 123.76 107.347 124.149 107.192 124.645C107.037 125.142 107.125 125.649 107.458 126.145C107.734 126.556 108.066 126.825 108.476 126.976C108.886 127.128 109.45 127.128 110.17 126.976L111.975 126.566C113.159 126.307 114.244 126.35 115.252 126.685C116.259 127.02 117.09 127.689 117.743 128.671C118.152 129.286 118.418 129.934 118.54 130.614C118.662 131.293 118.639 131.963 118.484 132.61C118.352 133.247 118.075 133.841 117.676 134.38C117.278 134.92 116.768 135.384 116.16 135.783C115.551 136.172 114.908 136.431 114.244 136.549C113.58 136.668 112.927 136.657 112.296 136.517C111.665 136.366 111.056 136.096 110.491 135.708C109.915 135.319 109.428 134.823 109.03 134.218L111.875 132.405L111.853 132.384Z" fill="white"/>
<path d="M107.679 140.163L109.871 145.031L106.561 146.445L104.369 141.577L102.321 142.451L101.18 139.926L103.228 139.052L99.2318 130.159C99.0657 129.781 98.8886 129.5 98.7225 129.317C98.5564 129.133 98.3572 129.036 98.1357 129.004C97.9143 128.971 97.6707 129.004 97.4161 129.079C97.1615 129.166 96.8404 129.284 96.475 129.446L95.1133 126.414L96.475 125.831C97.2279 125.507 97.9143 125.356 98.5343 125.367C99.1432 125.378 99.6857 125.507 100.151 125.734C100.616 125.96 101.025 126.273 101.369 126.673C101.712 127.061 101.977 127.471 102.166 127.892L106.55 137.638L108.211 136.926L109.351 139.451L107.701 140.163H107.679Z" fill="white"/>
<path d="M88.5469 146.152L84.3398 129.132L87.8494 128.312L88.2591 129.952L88.3255 129.931C88.558 129.305 88.8901 128.765 89.3219 128.29C89.7537 127.815 90.3737 127.492 91.1708 127.308C91.6026 127.211 92.0565 127.179 92.5325 127.222C93.0086 127.265 93.4515 127.416 93.8832 127.664C94.315 127.923 94.6914 128.29 95.0346 128.765C95.3778 129.24 95.6325 129.866 95.8207 130.622L99.0424 143.681L95.5328 144.501L92.6211 132.715C92.4661 132.089 92.2004 131.636 91.8129 131.345C91.4254 131.053 90.9604 130.978 90.4069 131.107C89.7426 131.269 89.333 131.571 89.178 132.035C89.023 132.499 89.0451 133.104 89.2333 133.87L92.0565 145.321L88.5469 146.141V146.152Z" fill="white"/>
<path d="M75.5832 129.371L75.6053 130.958C75.8378 130.699 76.0592 130.461 76.2696 130.234C76.4799 130.008 76.7124 129.814 76.9671 129.652C77.2217 129.49 77.5206 129.349 77.8417 129.252C78.1738 129.155 78.5613 129.101 79.0042 129.09C80.5209 129.069 81.5727 129.598 82.1816 130.699C82.403 131.087 82.558 131.573 82.6688 132.145C82.7795 132.717 82.8348 133.494 82.8459 134.454L82.9566 141.124C82.9788 142.387 82.9566 143.326 82.9013 143.919C82.7795 145.074 82.237 145.948 81.2849 146.531C80.842 146.833 80.1667 146.995 79.2699 147.017C78.5613 147.028 77.9303 146.887 77.3656 146.585C76.801 146.283 76.3249 145.851 75.9042 145.279H75.8378L75.9817 153.946L72.3725 154L71.9629 129.414L75.5721 129.36L75.5832 129.371ZM79.2588 135.016C79.2477 134.303 79.0928 133.731 78.8049 133.3C78.5171 132.868 78.0631 132.652 77.4431 132.663C76.9007 132.663 76.4689 132.879 76.1478 133.289C75.8267 133.699 75.6717 134.228 75.6828 134.865L75.7935 141.664C75.7935 142.214 75.9817 142.668 76.3249 143.024C76.6792 143.38 77.111 143.542 77.6313 143.542C78.3178 143.542 78.7828 143.315 79.0153 142.894C79.2588 142.473 79.3695 141.988 79.3585 141.437L79.2477 135.016H79.2588Z" fill="white"/>
<path d="M67.9004 146.563L64.1583 145.775L64.1029 134.594H64.0365L59.2759 144.739L55.6445 143.973L65.1547 124.957C65.509 124.233 65.9075 123.651 66.3504 123.23C66.7932 122.809 67.2693 122.485 67.7786 122.258C68.2879 122.032 68.8082 121.913 69.3286 121.891C69.8489 121.87 70.3803 121.924 70.9117 122.032L71.886 122.237L71.1664 125.475L70.3693 125.302C70.026 125.226 69.716 125.216 69.4393 125.248C69.1625 125.28 68.8857 125.442 68.6089 125.712C68.3543 125.993 68.0886 126.392 67.7897 126.932C67.5018 127.471 67.1365 128.227 66.7047 129.198L67.8893 146.552L67.9004 146.563Z" fill="white"/>
<path d="M36.0483 110.883L29.5606 114.898L31.4759 117.122L37.9636 113.107L39.5136 114.898L33.0259 118.913L34.1884 120.262L32.5609 121.6L31.2102 120.046L26.3167 123.068L27.4571 124.385L25.8296 125.723L24.501 124.191L18.0133 128.206L16.4633 126.414L22.9511 122.388L21.0358 120.165L14.548 124.191L12.998 122.399L19.4858 118.384L18.3233 117.035L19.9508 115.697L21.3015 117.251L26.1949 114.229L25.0546 112.912L26.6821 111.574L28.0106 113.107L34.4984 109.081L36.0483 110.873V110.883ZM27.756 116.031L22.8625 119.053L24.7778 121.277L29.6713 118.255L27.756 116.031Z" fill="white"/>
<path d="M31.5979 105.38L9.234 116.756L4.25195 107.452L7.26332 105.92L10.5736 112.104L17.1389 108.769L14.2603 103.384L17.2717 101.851L20.1613 107.237L26.7265 103.902L23.4162 97.7176L26.6158 96.0879L31.5979 105.391V105.38Z" fill="white"/>
<path d="M18.5996 97.1983L15.1011 98.0833L12.4219 88.0246L15.9204 87.1396L18.5996 97.1983Z" fill="white"/>
<path d="M5.71275 84.5377L0.27678 84.9479L0 81.4403L5.43597 81.0301L5.25883 78.8608L8.08199 78.645L8.25913 80.8143L18.1789 80.0588C18.5996 80.0264 18.9318 79.9617 19.1532 79.8646C19.3857 79.7674 19.5518 79.6163 19.6514 79.4329C19.7511 79.2386 19.8064 79.0119 19.8064 78.7421C19.8064 78.4723 19.7953 78.1485 19.7621 77.76L23.1499 77.501L23.2606 78.9472C23.3271 79.7458 23.2606 80.4366 23.0281 80.987C22.8178 81.5482 22.5189 82.0015 22.1424 82.3576C21.766 82.7138 21.3342 82.9836 20.836 83.1671C20.3378 83.3506 19.8618 83.4693 19.3857 83.5017L8.5027 84.3219L8.64662 86.0811L5.82346 86.2969L5.67953 84.5377H5.71275Z" fill="white"/>
<path d="M16.4187 66.2885L15.7655 73.2389L18.2012 73.4547C18.7658 73.5087 19.2197 73.39 19.5519 73.1094C19.884 72.8288 20.0833 72.4187 20.1276 71.8898C20.194 71.2207 20.0279 70.7674 19.6515 70.5084C19.2751 70.2493 18.8876 70.0875 18.489 70.0011L18.8212 66.4935C20.3933 66.6338 21.6222 67.2166 22.4968 68.2419C22.9508 68.7492 23.2829 69.332 23.5043 70.0011C23.7257 70.6703 23.8032 71.4041 23.7257 72.2028C23.6261 73.3036 23.305 74.221 22.7625 74.9441C22.22 75.6672 21.5447 76.2069 20.7254 76.5522C20.2272 76.7681 19.6737 76.8868 19.0537 76.9192C18.4337 76.9623 17.7583 76.9407 17.0276 76.876L11.1378 76.3472C10.4071 76.2824 9.74278 76.1745 9.14494 76.0342C8.54709 75.8939 8.01567 75.6672 7.57283 75.3758C6.83105 74.8902 6.26642 74.2534 5.86786 73.4332C5.46929 72.6237 5.32537 71.6632 5.42501 70.5623C5.50251 69.7637 5.71286 69.0406 6.05607 68.4146C6.39928 67.7886 6.84213 67.2706 7.37354 66.8497C8.51388 66.0294 9.88671 65.6841 11.492 65.8244L16.4298 66.2669L16.4187 66.2885ZM12.9424 72.9799L13.2634 69.537L11.2153 69.3535C10.5288 69.2888 10.0085 69.3967 9.64314 69.6773C9.27779 69.9579 9.06744 70.3573 9.01208 70.8861C8.9678 71.4149 9.08958 71.8466 9.41065 72.192C9.72064 72.5266 10.2188 72.7316 10.9053 72.7964L12.9534 72.9799H12.9424Z" fill="white"/>
<path d="M26.3956 59.3277L24.6463 58.7773L24.6242 58.8421C25.1113 59.4788 25.4435 60.0724 25.6317 60.6228C25.8199 61.1733 25.7756 61.864 25.5099 62.6734C25.377 63.0728 25.1888 63.4505 24.9342 63.8175C24.6795 64.1844 24.3142 64.4974 23.8603 64.7672C23.4285 65.037 22.8639 65.1989 22.1996 65.2421C21.5242 65.2852 20.716 65.1557 19.775 64.8643C18.8118 64.5621 17.9815 64.2168 17.3061 63.839C16.6308 63.4613 16.1104 62.9756 15.7451 62.4036C15.4019 61.864 15.2247 61.2164 15.2136 60.461C15.2026 59.7055 15.3686 58.8097 15.7119 57.752C15.7451 57.6441 15.7894 57.5254 15.8336 57.3959C15.8779 57.2664 15.9222 57.1476 15.9886 57.0397C16.044 56.9426 16.0993 56.8131 16.1547 56.6512C16.2101 56.4893 16.2654 56.3382 16.354 56.1655L14.5715 55.6043C13.9847 55.4208 13.4644 55.3884 12.9994 55.5072C12.5344 55.6259 12.2023 56.0036 11.9919 56.6404C11.848 57.0829 11.8591 57.5254 12.0362 57.9787C12.2133 58.432 12.5566 58.7989 13.088 59.0903L12.0141 62.3497C10.5194 61.7884 9.44554 60.8927 8.80341 59.6731C8.49342 59.0903 8.31628 58.4535 8.26092 57.7628C8.20557 57.0721 8.30521 56.3382 8.55984 55.5719C8.79234 54.8704 9.12448 54.2444 9.54518 53.7048C9.97696 53.1652 10.4862 52.7335 11.0841 52.4097C11.6819 52.1075 12.3573 51.9348 13.1212 51.8809C13.8851 51.8269 14.7154 51.9456 15.6122 52.2262L27.5138 55.9605L26.4067 59.3169L26.3956 59.3277ZM19.0443 57.0289C18.8561 57.3851 18.7232 57.6765 18.6347 57.9139C18.4022 58.637 18.3689 59.3062 18.5461 59.9321C18.7232 60.5581 19.2768 61.0114 20.1957 61.3028C20.8489 61.5078 21.4246 61.5186 21.9339 61.3352C22.4432 61.1517 22.7864 60.7955 22.9635 60.2451C23.1517 59.6731 23.1074 59.1766 22.8306 58.7341C22.5539 58.3024 22.0667 57.9679 21.3692 57.752L19.0443 57.0181V57.0289Z" fill="white"/>
<path d="M27.4988 54.8255L12.6523 44.9719L14.6894 42.0579L16.1287 43.0077L16.173 42.9537C15.9184 42.3385 15.7855 41.7125 15.7855 41.0866C15.7855 40.4606 16.018 39.813 16.483 39.1439C16.9258 38.5179 17.4462 38.097 18.044 37.8812C18.6529 37.6653 19.2286 37.5574 19.7822 37.5358C19.6272 36.8991 19.5497 36.2731 19.5608 35.6363C19.5719 34.9996 19.8486 34.298 20.4022 33.521C20.6568 33.1648 20.9779 32.8302 21.3654 32.5388C21.764 32.2474 22.2068 32.0424 22.7161 31.9345C23.2254 31.8265 23.7678 31.8265 24.3657 31.9345C24.9525 32.0532 25.5835 32.323 26.2478 32.7655L37.6401 40.3311L35.603 43.2451L25.3289 36.4242C24.7864 36.0572 24.2661 35.8953 23.7789 35.9385C23.2918 35.9817 22.8932 36.2299 22.5722 36.6832C22.1847 37.2336 22.0961 37.7301 22.2954 38.1726C22.5057 38.6151 22.9375 39.0576 23.6018 39.5001L33.588 46.1267L31.5509 49.0407L21.2768 42.2198C20.7343 41.8528 20.214 41.691 19.7269 41.7341C19.2397 41.7773 18.8412 42.0255 18.5201 42.4788C18.1326 43.0292 18.044 43.5257 18.2544 43.9682C18.4537 44.4107 18.8965 44.8532 19.5608 45.2957L29.547 51.9223L27.5099 54.8363L27.4988 54.8255Z" fill="white"/>
<path d="M41.7723 21.8228C41.418 21.3371 40.9973 21.0673 40.5213 21.0133C40.0452 20.9594 39.6134 21.0565 39.2149 21.3155C38.7388 21.6177 38.4731 22.0063 38.4288 22.4703C38.3734 22.9344 38.4731 23.3553 38.7388 23.7439C38.927 24.0137 39.1706 24.2295 39.4806 24.4022C39.7906 24.5749 40.3109 24.5749 41.0195 24.4238L43.2669 23.9705C44.673 23.6683 45.8354 23.7439 46.7544 24.208C47.6733 24.6612 48.4261 25.3304 49.0129 26.1938C49.4336 26.809 49.6993 27.4565 49.8322 28.1257C49.965 28.7948 49.965 29.4639 49.8543 30.1223C49.7325 30.7806 49.4779 31.4066 49.0793 31.9894C48.6807 32.5722 48.1604 33.0795 47.5072 33.5004C46.2894 34.2882 45.0051 34.5688 43.6766 34.353C43.0123 34.2559 42.3702 34.0184 41.7391 33.6299C41.108 33.2521 40.5434 32.7017 40.0231 31.9786L42.8573 30.1547C43.1894 30.5216 43.588 30.8022 44.053 31.0073C44.518 31.2123 45.0272 31.126 45.603 30.7591C46.0347 30.4785 46.3336 30.0899 46.4886 29.5935C46.6436 29.097 46.5551 28.5897 46.2119 28.0933C45.9351 27.694 45.5919 27.4134 45.1822 27.2623C44.7726 27.1112 44.208 27.122 43.4883 27.2731L41.6837 27.6832C40.4991 27.9422 39.4141 27.9098 38.4067 27.5752C37.3992 27.2407 36.5688 26.5823 35.9046 25.611C35.4839 24.9958 35.2181 24.3483 35.0964 23.6683C34.9746 22.9884 34.9856 22.3193 35.1406 21.6717C35.2735 21.0349 35.5392 20.4413 35.9378 19.9017C36.3363 19.3621 36.8345 18.8872 37.4435 18.4987C38.0524 18.1101 38.6945 17.8511 39.3588 17.7216C40.0231 17.5921 40.6763 17.6029 41.3073 17.7432C41.9384 17.8835 42.5473 18.1533 43.123 18.5418C43.6987 18.9304 44.1858 19.4268 44.5955 20.0204L41.7612 21.8444L41.7723 21.8228Z" fill="white"/>
<path d="M45.9467 13.9981L43.7324 9.14147L47.0316 7.70605L49.2459 12.5627L51.283 11.6777L52.4344 14.2032L50.3973 15.0882L54.4383 23.9597C54.6154 24.3374 54.7815 24.618 54.9586 24.7907C55.1247 24.9634 55.324 25.0713 55.5454 25.1037C55.7668 25.1361 56.0104 25.1037 56.265 25.0174C56.5197 24.931 56.8297 24.8123 57.2061 24.6504L58.59 27.6831L57.2282 28.2767C56.4754 28.6005 55.789 28.7624 55.1801 28.7516C54.5711 28.7408 54.0287 28.6221 53.5637 28.3954C53.0987 28.1688 52.689 27.8558 52.3458 27.4673C52.0026 27.0788 51.7258 26.6686 51.5376 26.2477L47.0981 16.5236L45.4485 17.2359L44.2971 14.7104L45.9467 13.9981Z" fill="white"/>
<path d="M65.0326 7.91113L69.3283 24.9095L65.8187 25.7513L65.398 24.1108L65.3315 24.1324C65.0991 24.7584 64.7669 25.3088 64.3462 25.7729C63.9144 26.2477 63.3055 26.5715 62.4973 26.7658C62.0655 26.8737 61.6116 26.9061 61.1356 26.8629C60.6595 26.8197 60.2166 26.6794 59.7849 26.4204C59.3531 26.1722 58.9767 25.8052 58.6335 25.3304C58.2903 24.8555 58.0245 24.2403 57.8363 23.474L54.5371 10.4258L58.0467 9.58398L61.0248 21.3587C61.1798 21.9847 61.4566 22.438 61.8441 22.7294C62.2316 23.0208 62.6966 23.0963 63.2502 22.956C63.9144 22.7941 64.3241 22.4811 64.4791 22.017C64.6341 21.553 64.6119 20.9378 64.4126 20.1823L61.5231 8.75295L65.0326 7.91113Z" fill="white"/>
<path d="M78.0733 24.6287L78.0512 23.0422C77.8187 23.3012 77.5973 23.5386 77.3869 23.7653C77.1766 23.9919 76.9441 24.1862 76.6894 24.3481C76.4348 24.51 76.1359 24.6503 75.8148 24.7474C75.4827 24.8445 75.0952 24.8985 74.6523 24.9093C73.1356 24.9309 72.0838 24.402 71.4749 23.3012C71.2535 22.9127 71.0985 22.427 70.9877 21.855C70.877 21.283 70.8217 20.5059 70.8106 19.5454L70.6999 12.8756C70.6777 11.6128 70.6999 10.6739 70.7552 10.0803C70.877 8.92547 71.4195 8.05127 72.3716 7.46847C72.8145 7.16628 73.4898 7.00439 74.3866 6.9828C75.0952 6.97201 75.7262 7.11231 76.2909 7.41451C76.8555 7.7167 77.3316 8.1484 77.7523 8.72041H77.8187L77.6748 0.0539629L81.284 0L81.6936 24.5855L78.0844 24.6395L78.0733 24.6287ZM74.3977 18.9842C74.4087 19.6965 74.5638 20.2685 74.8516 20.7002C75.1395 21.1319 75.5934 21.3477 76.2134 21.3369C76.7558 21.3369 77.1876 21.1211 77.5087 20.711C77.8298 20.3009 77.9848 19.772 77.9737 19.1353L77.863 12.3359C77.863 11.7855 77.6748 11.3322 77.3316 10.9761C76.9773 10.6199 76.5455 10.458 76.0251 10.458C75.3387 10.458 74.8737 10.6847 74.6412 11.1056C74.3977 11.5265 74.287 12.0121 74.298 12.5626L74.4088 18.9842H74.3977Z" fill="white"/>
<path d="M85.6575 7.38184L89.3995 8.14811L89.5213 19.3292H89.5878L94.2819 9.15182L97.9244 9.89651L88.5249 28.967C88.1706 29.6901 87.7831 30.2729 87.3403 30.7046C86.8974 31.1363 86.4214 31.4601 85.9121 31.6867C85.4028 31.9134 84.8936 32.0321 84.3621 32.0537C83.8418 32.0753 83.3104 32.0321 82.779 31.9242L81.8047 31.7299L82.5022 28.4813L83.2993 28.6432C83.6425 28.7188 83.9525 28.7296 84.2293 28.6972C84.5061 28.654 84.7828 28.5029 85.0486 28.2331C85.3032 27.9525 85.5689 27.5424 85.8567 27.0028C86.1446 26.4631 86.4989 25.7077 86.9196 24.7363L85.6353 7.39263L85.6575 7.38184Z" fill="white"/>
</svg>
