<svg width="1600" height="147" viewBox="0 0 1600 147" fill="none" xmlns="http://www.w3.org/2000/svg">
<path d="M28.8009 114L33.4409 79.6001H20.0009L15.3609 114H4.48094L9.12094 79.6001H0.960938V70.0001H10.4009L13.9209 44.0801H5.92094V34.4801H15.2009L19.8409 0.0800781H30.7209L26.0809 34.4801H39.5209L44.1609 0.0800781H55.0409L50.4009 34.4801H58.5609V44.0801H49.1209L45.6009 70.0001H53.6009V79.6001H44.3209L39.6809 114H28.8009ZM34.7209 70.0001L38.2409 44.0801H24.8009L21.2809 70.0001H34.7209Z" fill="white" fill-opacity="0.3"/>
<path d="M67.2122 114V0.0800781H115.852V15.4401H83.5322V48.8801H111.692V64.2401H83.5322V97.6801H115.852V114H67.2122Z" fill="white" fill-opacity="0.3"/>
<path d="M125.791 77.8401V61.5201H173.951V77.8401H125.791Z" fill="white" fill-opacity="0.3"/>
<path d="M187.658 32.8801V8.24008H203.978V32.8801H214.058V45.6801H203.978V90.6401C203.978 92.5601 204.138 94.0534 204.458 95.1201C204.885 96.1867 205.525 96.9867 206.378 97.5201C207.232 98.0534 208.245 98.3734 209.418 98.4801C210.698 98.5867 212.245 98.6401 214.058 98.6401V114H207.338C203.605 114 200.458 113.413 197.898 112.24C195.445 111.067 193.472 109.573 191.978 107.76C190.485 105.947 189.365 103.92 188.618 101.68C187.978 99.3334 187.658 97.0934 187.658 94.9601V45.6801H179.498V32.8801H187.658Z" fill="white" fill-opacity="0.3"/>
<path d="M267.515 79.6001H235.195V90.6401C235.195 93.2001 235.888 95.1734 237.275 96.5601C238.768 97.9467 240.741 98.6401 243.195 98.6401C246.288 98.6401 248.315 97.7334 249.275 95.9201C250.341 94.1067 250.981 92.2934 251.195 90.4801H267.515C267.515 97.6268 265.328 103.387 260.955 107.76C258.821 110 256.261 111.76 253.275 113.04C250.288 114.32 246.928 114.96 243.195 114.96C238.075 114.96 233.701 113.893 230.075 111.76C226.555 109.627 223.835 106.8 221.915 103.28C220.741 101.147 219.941 98.6934 219.515 95.9201C219.088 93.1467 218.875 90.1067 218.875 86.8001V60.0801C218.875 56.7734 219.088 53.7334 219.515 50.9601C219.941 48.1867 220.741 45.7334 221.915 43.6001C223.835 40.0801 226.555 37.2534 230.075 35.1201C233.701 32.9867 238.075 31.9201 243.195 31.9201C246.928 31.9201 250.288 32.5601 253.275 33.8401C256.368 35.1201 258.981 36.8801 261.115 39.1201C265.381 43.9201 267.515 49.9467 267.515 57.2001V79.6001ZM235.195 66.8001H251.195V57.5201C251.195 54.4267 250.448 52.1334 248.955 50.6401C247.568 49.0401 245.648 48.2401 243.195 48.2401C240.741 48.2401 238.768 49.0401 237.275 50.6401C235.888 52.1334 235.195 54.4267 235.195 57.5201V66.8001Z" fill="white" fill-opacity="0.3"/>
<path d="M310.413 114V105.68H310.093C307.96 108.667 305.773 110.96 303.533 112.56C301.4 114.16 298.36 114.96 294.413 114.96C292.493 114.96 290.52 114.64 288.493 114C286.573 113.467 284.707 112.4 282.893 110.8C281.08 109.307 279.587 107.173 278.413 104.4C277.347 101.52 276.813 97.8401 276.813 93.3601C276.813 88.7734 277.187 84.7734 277.933 81.3601C278.68 77.8401 280.067 74.9067 282.093 72.5601C284.013 70.3201 286.627 68.6668 289.933 67.6001C293.24 66.4267 297.453 65.8401 302.573 65.8401C303.107 65.8401 303.693 65.8401 304.333 65.8401C304.973 65.8401 305.56 65.8934 306.093 66.0001C306.627 66.1067 307.267 66.1601 308.013 66.1601C308.76 66.1601 309.56 66.2134 310.413 66.3201V57.8401C310.413 55.0667 309.827 52.7734 308.653 50.9601C307.48 49.1467 305.347 48.2401 302.253 48.2401C300.12 48.2401 298.147 48.9334 296.333 50.3201C294.627 51.7067 293.507 53.7334 292.973 56.4001H277.133C277.56 49.1467 280.013 43.2801 284.493 38.8001C286.627 36.6667 289.187 35.0134 292.173 33.8401C295.16 32.5601 298.52 31.9201 302.253 31.9201C305.667 31.9201 308.867 32.4534 311.853 33.5201C314.84 34.5867 317.453 36.1867 319.693 38.3201C321.827 40.4534 323.533 43.1201 324.813 46.3201C326.093 49.5201 326.733 53.2534 326.733 57.5201V114H310.413ZM310.413 79.1201C308.6 78.8001 307.107 78.6401 305.933 78.6401C302.413 78.6401 299.373 79.4934 296.813 81.2001C294.36 82.8001 293.133 85.7867 293.133 90.1601C293.133 93.2534 293.88 95.7601 295.373 97.6801C296.867 99.6001 298.947 100.56 301.613 100.56C304.387 100.56 306.52 99.6534 308.013 97.8401C309.613 96.0267 310.413 93.4667 310.413 90.1601V79.1201Z" fill="white" fill-opacity="0.3"/>
<path d="M338.752 114V32.8801H355.072V40.7201H355.392C357.099 38.1601 359.126 36.0801 361.472 34.4801C363.926 32.7734 367.019 31.9201 370.752 31.9201C374.272 31.9201 377.206 32.7734 379.552 34.4801C381.899 36.1867 383.819 38.0534 385.312 40.0801C387.339 37.8401 389.579 35.9201 392.032 34.3201C394.486 32.7201 397.899 31.9201 402.272 31.9201C404.299 31.9201 406.379 32.2934 408.512 33.0401C410.646 33.6801 412.566 34.8001 414.272 36.4001C415.979 38.0001 417.366 40.0801 418.432 42.6401C419.499 45.0934 420.032 48.1334 420.032 51.7601V114H403.712V57.8401C403.712 54.8534 403.019 52.5067 401.632 50.8001C400.246 49.0934 398.272 48.2401 395.712 48.2401C392.619 48.2401 390.486 49.2001 389.312 51.1201C388.139 53.0401 387.552 55.8134 387.552 59.4401V114H371.232V57.8401C371.232 54.8534 370.539 52.5067 369.152 50.8001C367.766 49.0934 365.792 48.2401 363.232 48.2401C360.139 48.2401 358.006 49.2001 356.832 51.1201C355.659 53.0401 355.072 55.8134 355.072 59.4401V114H338.752Z" fill="white" fill-opacity="0.3"/>
<path d="M492.727 55.6001C492.621 52.8267 491.714 50.7467 490.007 49.3601C488.407 47.9734 486.541 47.2801 484.407 47.2801C481.847 47.2801 479.874 48.1334 478.487 49.8401C477.101 51.4401 476.407 53.3067 476.407 55.4401C476.407 56.9334 476.781 58.4267 477.527 59.9201C478.274 61.3067 480.194 62.5867 483.287 63.7601L492.887 67.6001C498.967 69.9468 503.127 73.1467 505.367 77.2001C507.714 81.2534 508.887 85.6801 508.887 90.4801C508.887 93.8934 508.247 97.0934 506.967 100.08C505.794 102.96 504.141 105.52 502.007 107.76C499.874 110 497.314 111.76 494.327 113.04C491.341 114.32 488.087 114.96 484.567 114.96C477.954 114.96 472.407 112.88 467.927 108.72C465.687 106.693 463.874 104.187 462.487 101.2C461.101 98.1067 460.354 94.5334 460.247 90.4801H475.607C475.927 92.7201 476.674 94.8001 477.847 96.7201C479.127 98.6401 481.314 99.6001 484.407 99.6001C486.754 99.6001 488.834 98.8534 490.647 97.3601C492.567 95.7601 493.527 93.5734 493.527 90.8001C493.527 88.5601 492.941 86.6401 491.767 85.0401C490.594 83.4401 488.461 82.0534 485.367 80.8801L477.527 78.0001C472.407 76.0801 468.354 73.2534 465.367 69.5201C462.487 65.6801 461.047 61.0401 461.047 55.6001C461.047 52.1867 461.687 49.0401 462.967 46.1601C464.247 43.1734 466.007 40.6134 468.247 38.4801C470.381 36.3467 472.887 34.7467 475.767 33.6801C478.647 32.5067 481.741 31.9201 485.047 31.9201C488.354 31.9201 491.394 32.5067 494.167 33.6801C497.047 34.8534 499.501 36.5067 501.527 38.6401C503.554 40.7734 505.154 43.3334 506.327 46.3201C507.501 49.2001 508.087 52.2934 508.087 55.6001H492.727Z" fill="white" fill-opacity="0.3"/>
<path d="M519.377 32.8801V8.24008H535.697V32.8801H545.777V45.6801H535.697V90.6401C535.697 92.5601 535.857 94.0534 536.177 95.1201C536.604 96.1867 537.244 96.9867 538.097 97.5201C538.951 98.0534 539.964 98.3734 541.137 98.4801C542.417 98.5867 543.964 98.6401 545.777 98.6401V114H539.057C535.324 114 532.177 113.413 529.617 112.24C527.164 111.067 525.19 109.573 523.697 107.76C522.204 105.947 521.084 103.92 520.337 101.68C519.697 99.3334 519.377 97.0934 519.377 94.9601V45.6801H511.217V32.8801H519.377Z" fill="white" fill-opacity="0.3"/>
<path d="M600.833 32.8801V114H584.513V106.16H584.193C582.487 108.72 580.407 110.853 577.953 112.56C575.607 114.16 572.567 114.96 568.833 114.96C566.807 114.96 564.78 114.64 562.753 114C560.727 113.253 558.913 112.08 557.313 110.48C555.713 108.88 554.433 106.853 553.473 104.4C552.513 101.84 552.033 98.7467 552.033 95.1201V32.8801H568.353V89.0401C568.353 92.0268 569.047 94.3734 570.433 96.0801C571.82 97.7867 573.793 98.6401 576.353 98.6401C579.447 98.6401 581.58 97.6801 582.753 95.7601C583.927 93.8401 584.513 91.0667 584.513 87.4401V32.8801H600.833Z" fill="white" fill-opacity="0.3"/>
<path d="M630.541 87.6001C630.541 90.9067 631.181 93.5734 632.461 95.6001C633.741 97.6267 635.768 98.6401 638.541 98.6401C640.994 98.6401 642.968 97.7334 644.461 95.9201C645.954 94.0001 646.701 91.5467 646.701 88.5601V57.0401C646.701 54.4801 645.901 52.4001 644.301 50.8001C642.808 49.0934 640.888 48.2401 638.541 48.2401C635.448 48.2401 633.314 49.2001 632.141 51.1201C631.074 53.0401 630.541 55.2801 630.541 57.8401V87.6001ZM646.701 114V106.64C645.634 107.813 644.621 108.933 643.661 110C642.701 110.96 641.634 111.813 640.461 112.56C639.288 113.307 637.954 113.893 636.461 114.32C634.968 114.747 633.208 114.96 631.181 114.96C624.354 114.96 619.608 112.4 616.941 107.28C615.981 105.467 615.288 103.227 614.861 100.56C614.434 97.8934 614.221 94.3201 614.221 89.8401V58.9601C614.221 53.0934 614.381 48.7734 614.701 46.0001C615.341 40.6667 617.848 36.6667 622.221 34.0001C624.248 32.6134 627.288 31.9201 631.341 31.9201C634.541 31.9201 637.368 32.6667 639.821 34.1601C642.381 35.5467 644.568 37.5734 646.381 40.2401H646.701V0.0800781H663.021V114H646.701Z" fill="white" fill-opacity="0.3"/>
<path d="M669.528 32.8801H686.808L698.008 83.4401H698.328L709.368 32.8801H726.168L702.808 128.08C701.955 131.707 700.728 134.693 699.128 137.04C697.635 139.387 695.875 141.307 693.848 142.8C691.822 144.293 689.635 145.307 687.288 145.84C685.048 146.48 682.702 146.8 680.248 146.8H675.768V131.44H679.448C681.048 131.44 682.435 131.227 683.608 130.8C684.782 130.373 685.848 129.413 686.808 127.92C687.662 126.427 688.462 124.293 689.208 121.52C689.955 118.853 690.808 115.12 691.768 110.32L669.528 32.8801Z" fill="white" fill-opacity="0.3"/>
<path d="M784.426 114L789.066 79.6001H775.626L770.986 114H760.106L764.746 79.6001H756.586V70.0001H766.026L769.546 44.0801H761.546V34.4801H770.826L775.466 0.0800781H786.346L781.706 34.4801H795.146L799.786 0.0800781H810.666L806.026 34.4801H814.186V44.0801H804.746L801.226 70.0001H809.226V79.6001H799.946L795.306 114H784.426ZM790.346 70.0001L793.866 44.0801H780.426L776.906 70.0001H790.346Z" fill="white" fill-opacity="0.3"/>
<path d="M822.837 114V0.0800781H871.477V15.4401H839.157V48.8801H867.317V64.2401H839.157V97.6801H871.477V114H822.837Z" fill="white" fill-opacity="0.3"/>
<path d="M881.416 77.8401V61.5201H929.576V77.8401H881.416Z" fill="white" fill-opacity="0.3"/>
<path d="M943.283 32.8801V8.24008H959.603V32.8801H969.683V45.6801H959.603V90.6401C959.603 92.5601 959.763 94.0534 960.083 95.1201C960.51 96.1867 961.15 96.9867 962.003 97.5201C962.857 98.0534 963.87 98.3734 965.043 98.4801C966.323 98.5867 967.87 98.6401 969.683 98.6401V114H962.963C959.23 114 956.083 113.413 953.523 112.24C951.07 111.067 949.097 109.573 947.603 107.76C946.11 105.947 944.99 103.92 944.243 101.68C943.603 99.3334 943.283 97.0934 943.283 94.9601V45.6801H935.123V32.8801H943.283Z" fill="white" fill-opacity="0.3"/>
<path d="M1023.14 79.6001H990.82V90.6401C990.82 93.2001 991.513 95.1734 992.9 96.5601C994.393 97.9467 996.366 98.6401 998.82 98.6401C1001.91 98.6401 1003.94 97.7334 1004.9 95.9201C1005.97 94.1067 1006.61 92.2934 1006.82 90.4801H1023.14C1023.14 97.6268 1020.95 103.387 1016.58 107.76C1014.45 110 1011.89 111.76 1008.9 113.04C1005.91 114.32 1002.55 114.96 998.82 114.96C993.7 114.96 989.326 113.893 985.7 111.76C982.18 109.627 979.46 106.8 977.54 103.28C976.366 101.147 975.566 98.6934 975.14 95.9201C974.713 93.1467 974.5 90.1067 974.5 86.8001V60.0801C974.5 56.7734 974.713 53.7334 975.14 50.9601C975.566 48.1867 976.366 45.7334 977.54 43.6001C979.46 40.0801 982.18 37.2534 985.7 35.1201C989.326 32.9867 993.7 31.9201 998.82 31.9201C1002.55 31.9201 1005.91 32.5601 1008.9 33.8401C1011.99 35.1201 1014.61 36.8801 1016.74 39.1201C1021.01 43.9201 1023.14 49.9467 1023.14 57.2001V79.6001ZM990.82 66.8001H1006.82V57.5201C1006.82 54.4267 1006.07 52.1334 1004.58 50.6401C1003.19 49.0401 1001.27 48.2401 998.82 48.2401C996.366 48.2401 994.393 49.0401 992.9 50.6401C991.513 52.1334 990.82 54.4267 990.82 57.5201V66.8001Z" fill="white" fill-opacity="0.3"/>
<path d="M1066.04 114V105.68H1065.72C1063.59 108.667 1061.4 110.96 1059.16 112.56C1057.03 114.16 1053.99 114.96 1050.04 114.96C1048.12 114.96 1046.15 114.64 1044.12 114C1042.2 113.467 1040.33 112.4 1038.52 110.8C1036.71 109.307 1035.21 107.173 1034.04 104.4C1032.97 101.52 1032.44 97.8401 1032.44 93.3601C1032.44 88.7734 1032.81 84.7734 1033.56 81.3601C1034.31 77.8401 1035.69 74.9067 1037.72 72.5601C1039.64 70.3201 1042.25 68.6668 1045.56 67.6001C1048.87 66.4267 1053.08 65.8401 1058.2 65.8401C1058.73 65.8401 1059.32 65.8401 1059.96 65.8401C1060.6 65.8401 1061.19 65.8934 1061.72 66.0001C1062.25 66.1067 1062.89 66.1601 1063.64 66.1601C1064.39 66.1601 1065.19 66.2134 1066.04 66.3201V57.8401C1066.04 55.0667 1065.45 52.7734 1064.28 50.9601C1063.11 49.1467 1060.97 48.2401 1057.88 48.2401C1055.75 48.2401 1053.77 48.9334 1051.96 50.3201C1050.25 51.7067 1049.13 53.7334 1048.6 56.4001H1032.76C1033.19 49.1467 1035.64 43.2801 1040.12 38.8001C1042.25 36.6667 1044.81 35.0134 1047.8 33.8401C1050.79 32.5601 1054.15 31.9201 1057.88 31.9201C1061.29 31.9201 1064.49 32.4534 1067.48 33.5201C1070.47 34.5867 1073.08 36.1867 1075.32 38.3201C1077.45 40.4534 1079.16 43.1201 1080.44 46.3201C1081.72 49.5201 1082.36 53.2534 1082.36 57.5201V114H1066.04ZM1066.04 79.1201C1064.23 78.8001 1062.73 78.6401 1061.56 78.6401C1058.04 78.6401 1055 79.4934 1052.44 81.2001C1049.99 82.8001 1048.76 85.7867 1048.76 90.1601C1048.76 93.2534 1049.51 95.7601 1051 97.6801C1052.49 99.6001 1054.57 100.56 1057.24 100.56C1060.01 100.56 1062.15 99.6534 1063.64 97.8401C1065.24 96.0267 1066.04 93.4667 1066.04 90.1601V79.1201Z" fill="white" fill-opacity="0.3"/>
<path d="M1094.38 114V32.8801H1110.7V40.7201H1111.02C1112.72 38.1601 1114.75 36.0801 1117.1 34.4801C1119.55 32.7734 1122.64 31.9201 1126.38 31.9201C1129.9 31.9201 1132.83 32.7734 1135.18 34.4801C1137.52 36.1867 1139.44 38.0534 1140.94 40.0801C1142.96 37.8401 1145.2 35.9201 1147.66 34.3201C1150.11 32.7201 1153.52 31.9201 1157.9 31.9201C1159.92 31.9201 1162 32.2934 1164.14 33.0401C1166.27 33.6801 1168.19 34.8001 1169.9 36.4001C1171.6 38.0001 1172.99 40.0801 1174.06 42.6401C1175.12 45.0934 1175.66 48.1334 1175.66 51.7601V114H1159.34V57.8401C1159.34 54.8534 1158.64 52.5067 1157.26 50.8001C1155.87 49.0934 1153.9 48.2401 1151.34 48.2401C1148.24 48.2401 1146.11 49.2001 1144.94 51.1201C1143.76 53.0401 1143.18 55.8134 1143.18 59.4401V114H1126.86V57.8401C1126.86 54.8534 1126.16 52.5067 1124.78 50.8001C1123.39 49.0934 1121.42 48.2401 1118.86 48.2401C1115.76 48.2401 1113.63 49.2001 1112.46 51.1201C1111.28 53.0401 1110.7 55.8134 1110.7 59.4401V114H1094.38Z" fill="white" fill-opacity="0.3"/>
<path d="M1248.35 55.6001C1248.25 52.8267 1247.34 50.7467 1245.63 49.3601C1244.03 47.9734 1242.17 47.2801 1240.03 47.2801C1237.47 47.2801 1235.5 48.1334 1234.11 49.8401C1232.73 51.4401 1232.03 53.3067 1232.03 55.4401C1232.03 56.9334 1232.41 58.4267 1233.15 59.9201C1233.9 61.3067 1235.82 62.5867 1238.91 63.7601L1248.51 67.6001C1254.59 69.9468 1258.75 73.1467 1260.99 77.2001C1263.34 81.2534 1264.51 85.6801 1264.51 90.4801C1264.51 93.8934 1263.87 97.0934 1262.59 100.08C1261.42 102.96 1259.77 105.52 1257.63 107.76C1255.5 110 1252.94 111.76 1249.95 113.04C1246.97 114.32 1243.71 114.96 1240.19 114.96C1233.58 114.96 1228.03 112.88 1223.55 108.72C1221.31 106.693 1219.5 104.187 1218.11 101.2C1216.73 98.1067 1215.98 94.5334 1215.87 90.4801H1231.23C1231.55 92.7201 1232.3 94.8001 1233.47 96.7201C1234.75 98.6401 1236.94 99.6001 1240.03 99.6001C1242.38 99.6001 1244.46 98.8534 1246.27 97.3601C1248.19 95.7601 1249.15 93.5734 1249.15 90.8001C1249.15 88.5601 1248.57 86.6401 1247.39 85.0401C1246.22 83.4401 1244.09 82.0534 1240.99 80.8801L1233.15 78.0001C1228.03 76.0801 1223.98 73.2534 1220.99 69.5201C1218.11 65.6801 1216.67 61.0401 1216.67 55.6001C1216.67 52.1867 1217.31 49.0401 1218.59 46.1601C1219.87 43.1734 1221.63 40.6134 1223.87 38.4801C1226.01 36.3467 1228.51 34.7467 1231.39 33.6801C1234.27 32.5067 1237.37 31.9201 1240.67 31.9201C1243.98 31.9201 1247.02 32.5067 1249.79 33.6801C1252.67 34.8534 1255.13 36.5067 1257.15 38.6401C1259.18 40.7734 1260.78 43.3334 1261.95 46.3201C1263.13 49.2001 1263.71 52.2934 1263.71 55.6001H1248.35Z" fill="white" fill-opacity="0.3"/>
<path d="M1275 32.8801V8.24008H1291.32V32.8801H1301.4V45.6801H1291.32V90.6401C1291.32 92.5601 1291.48 94.0534 1291.8 95.1201C1292.23 96.1867 1292.87 96.9867 1293.72 97.5201C1294.58 98.0534 1295.59 98.3734 1296.76 98.4801C1298.04 98.5867 1299.59 98.6401 1301.4 98.6401V114H1294.68C1290.95 114 1287.8 113.413 1285.24 112.24C1282.79 111.067 1280.82 109.573 1279.32 107.76C1277.83 105.947 1276.71 103.92 1275.96 101.68C1275.32 99.3334 1275 97.0934 1275 94.9601V45.6801H1266.84V32.8801H1275Z" fill="white" fill-opacity="0.3"/>
<path d="M1356.46 32.8801V114H1340.14V106.16H1339.82C1338.11 108.72 1336.03 110.853 1333.58 112.56C1331.23 114.16 1328.19 114.96 1324.46 114.96C1322.43 114.96 1320.41 114.64 1318.38 114C1316.35 113.253 1314.54 112.08 1312.94 110.48C1311.34 108.88 1310.06 106.853 1309.1 104.4C1308.14 101.84 1307.66 98.7467 1307.66 95.1201V32.8801H1323.98V89.0401C1323.98 92.0268 1324.67 94.3734 1326.06 96.0801C1327.45 97.7867 1329.42 98.6401 1331.98 98.6401C1335.07 98.6401 1337.21 97.6801 1338.38 95.7601C1339.55 93.8401 1340.14 91.0667 1340.14 87.4401V32.8801H1356.46Z" fill="white" fill-opacity="0.3"/>
<path d="M1386.17 87.6001C1386.17 90.9067 1386.81 93.5734 1388.09 95.6001C1389.37 97.6267 1391.39 98.6401 1394.17 98.6401C1396.62 98.6401 1398.59 97.7334 1400.09 95.9201C1401.58 94.0001 1402.33 91.5467 1402.33 88.5601V57.0401C1402.33 54.4801 1401.53 52.4001 1399.93 50.8001C1398.43 49.0934 1396.51 48.2401 1394.17 48.2401C1391.07 48.2401 1388.94 49.2001 1387.77 51.1201C1386.7 53.0401 1386.17 55.2801 1386.17 57.8401V87.6001ZM1402.33 114V106.64C1401.26 107.813 1400.25 108.933 1399.29 110C1398.33 110.96 1397.26 111.813 1396.09 112.56C1394.91 113.307 1393.58 113.893 1392.09 114.32C1390.59 114.747 1388.83 114.96 1386.81 114.96C1379.98 114.96 1375.23 112.4 1372.57 107.28C1371.61 105.467 1370.91 103.227 1370.49 100.56C1370.06 97.8934 1369.85 94.3201 1369.85 89.8401V58.9601C1369.85 53.0934 1370.01 48.7734 1370.33 46.0001C1370.97 40.6667 1373.47 36.6667 1377.85 34.0001C1379.87 32.6134 1382.91 31.9201 1386.97 31.9201C1390.17 31.9201 1392.99 32.6667 1395.45 34.1601C1398.01 35.5467 1400.19 37.5734 1402.01 40.2401H1402.33V0.0800781H1418.65V114H1402.33Z" fill="white" fill-opacity="0.3"/>
<path d="M1425.15 32.8801H1442.43L1453.63 83.4401H1453.95L1464.99 32.8801H1481.79L1458.43 128.08C1457.58 131.707 1456.35 134.693 1454.75 137.04C1453.26 139.387 1451.5 141.307 1449.47 142.8C1447.45 144.293 1445.26 145.307 1442.91 145.84C1440.67 146.48 1438.33 146.8 1435.87 146.8H1431.39V131.44H1435.07C1436.67 131.44 1438.06 131.227 1439.23 130.8C1440.41 130.373 1441.47 129.413 1442.43 127.92C1443.29 126.427 1444.09 124.293 1444.83 121.52C1445.58 118.853 1446.43 115.12 1447.39 110.32L1425.15 32.8801Z" fill="white" fill-opacity="0.3"/>
<path d="M1540.05 114L1544.69 79.6001H1531.25L1526.61 114H1515.73L1520.37 79.6001H1512.21V70.0001H1521.65L1525.17 44.0801H1517.17V34.4801H1526.45L1531.09 0.0800781H1541.97L1537.33 34.4801H1550.77L1555.41 0.0800781H1566.29L1561.65 34.4801H1569.81V44.0801H1560.37L1556.85 70.0001H1564.85V79.6001H1555.57L1550.93 114H1540.05ZM1545.97 70.0001L1549.49 44.0801H1536.05L1532.53 70.0001H1545.97Z" fill="white" fill-opacity="0.3"/>
<path d="M1578.46 114V0.0800781H1627.1V15.4401H1594.78V48.8801H1622.94V64.2401H1594.78V97.6801H1627.1V114H1578.46Z" fill="white" fill-opacity="0.3"/>
<path d="M1637.04 77.8401V61.5201H1685.2V77.8401H1637.04Z" fill="white" fill-opacity="0.3"/>
<path d="M1698.91 32.8801V8.24008H1715.23V32.8801H1725.31V45.6801H1715.23V90.6401C1715.23 92.5601 1715.39 94.0534 1715.71 95.1201C1716.14 96.1867 1716.78 96.9867 1717.63 97.5201C1718.48 98.0534 1719.5 98.3734 1720.67 98.4801C1721.95 98.5867 1723.5 98.6401 1725.31 98.6401V114H1718.59C1714.86 114 1711.71 113.413 1709.15 112.24C1706.7 111.067 1704.72 109.573 1703.23 107.76C1701.74 105.947 1700.62 103.92 1699.87 101.68C1699.23 99.3334 1698.91 97.0934 1698.91 94.9601V45.6801H1690.75V32.8801H1698.91Z" fill="white" fill-opacity="0.3"/>
<path d="M1778.76 79.6001H1746.44V90.6401C1746.44 93.2001 1747.14 95.1734 1748.52 96.5601C1750.02 97.9467 1751.99 98.6401 1754.44 98.6401C1757.54 98.6401 1759.56 97.7334 1760.52 95.9201C1761.59 94.1067 1762.23 92.2934 1762.44 90.4801H1778.76C1778.76 97.6268 1776.58 103.387 1772.2 107.76C1770.07 110 1767.51 111.76 1764.52 113.04C1761.54 114.32 1758.18 114.96 1754.44 114.96C1749.32 114.96 1744.95 113.893 1741.32 111.76C1737.8 109.627 1735.08 106.8 1733.16 103.28C1731.99 101.147 1731.19 98.6934 1730.76 95.9201C1730.34 93.1467 1730.12 90.1067 1730.12 86.8001V60.0801C1730.12 56.7734 1730.34 53.7334 1730.76 50.9601C1731.19 48.1867 1731.99 45.7334 1733.16 43.6001C1735.08 40.0801 1737.8 37.2534 1741.32 35.1201C1744.95 32.9867 1749.32 31.9201 1754.44 31.9201C1758.18 31.9201 1761.54 32.5601 1764.52 33.8401C1767.62 35.1201 1770.23 36.8801 1772.36 39.1201C1776.63 43.9201 1778.76 49.9467 1778.76 57.2001V79.6001ZM1746.44 66.8001H1762.44V57.5201C1762.44 54.4267 1761.7 52.1334 1760.2 50.6401C1758.82 49.0401 1756.9 48.2401 1754.44 48.2401C1751.99 48.2401 1750.02 49.0401 1748.52 50.6401C1747.14 52.1334 1746.44 54.4267 1746.44 57.5201V66.8001Z" fill="white" fill-opacity="0.3"/>
<path d="M1821.66 114V105.68H1821.34C1819.21 108.667 1817.02 110.96 1814.78 112.56C1812.65 114.16 1809.61 114.96 1805.66 114.96C1803.74 114.96 1801.77 114.64 1799.74 114C1797.82 113.467 1795.96 112.4 1794.14 110.8C1792.33 109.307 1790.84 107.173 1789.66 104.4C1788.6 101.52 1788.06 97.8401 1788.06 93.3601C1788.06 88.7734 1788.44 84.7734 1789.18 81.3601C1789.93 77.8401 1791.32 74.9067 1793.34 72.5601C1795.26 70.3201 1797.88 68.6668 1801.18 67.6001C1804.49 66.4267 1808.7 65.8401 1813.82 65.8401C1814.36 65.8401 1814.94 65.8401 1815.58 65.8401C1816.22 65.8401 1816.81 65.8934 1817.34 66.0001C1817.88 66.1067 1818.52 66.1601 1819.26 66.1601C1820.01 66.1601 1820.81 66.2134 1821.66 66.3201V57.8401C1821.66 55.0667 1821.08 52.7734 1819.9 50.9601C1818.73 49.1467 1816.6 48.2401 1813.5 48.2401C1811.37 48.2401 1809.4 48.9334 1807.58 50.3201C1805.88 51.7067 1804.76 53.7334 1804.22 56.4001H1788.38C1788.81 49.1467 1791.26 43.2801 1795.74 38.8001C1797.88 36.6667 1800.44 35.0134 1803.42 33.8401C1806.41 32.5601 1809.77 31.9201 1813.5 31.9201C1816.92 31.9201 1820.12 32.4534 1823.1 33.5201C1826.09 34.5867 1828.7 36.1867 1830.94 38.3201C1833.08 40.4534 1834.78 43.1201 1836.06 46.3201C1837.34 49.5201 1837.98 53.2534 1837.98 57.5201V114H1821.66ZM1821.66 79.1201C1819.85 78.8001 1818.36 78.6401 1817.18 78.6401C1813.66 78.6401 1810.62 79.4934 1808.06 81.2001C1805.61 82.8001 1804.38 85.7867 1804.38 90.1601C1804.38 93.2534 1805.13 95.7601 1806.62 97.6801C1808.12 99.6001 1810.2 100.56 1812.86 100.56C1815.64 100.56 1817.77 99.6534 1819.26 97.8401C1820.86 96.0267 1821.66 93.4667 1821.66 90.1601V79.1201Z" fill="white" fill-opacity="0.3"/>
<path d="M1850 114V32.8801H1866.32V40.7201H1866.64C1868.35 38.1601 1870.38 36.0801 1872.72 34.4801C1875.18 32.7734 1878.27 31.9201 1882 31.9201C1885.52 31.9201 1888.46 32.7734 1890.8 34.4801C1893.15 36.1867 1895.07 38.0534 1896.56 40.0801C1898.59 37.8401 1900.83 35.9201 1903.28 34.3201C1905.74 32.7201 1909.15 31.9201 1913.52 31.9201C1915.55 31.9201 1917.63 32.2934 1919.76 33.0401C1921.9 33.6801 1923.82 34.8001 1925.52 36.4001C1927.23 38.0001 1928.62 40.0801 1929.68 42.6401C1930.75 45.0934 1931.28 48.1334 1931.28 51.7601V114H1914.96V57.8401C1914.96 54.8534 1914.27 52.5067 1912.88 50.8001C1911.5 49.0934 1909.52 48.2401 1906.96 48.2401C1903.87 48.2401 1901.74 49.2001 1900.56 51.1201C1899.39 53.0401 1898.8 55.8134 1898.8 59.4401V114H1882.48V57.8401C1882.48 54.8534 1881.79 52.5067 1880.4 50.8001C1879.02 49.0934 1877.04 48.2401 1874.48 48.2401C1871.39 48.2401 1869.26 49.2001 1868.08 51.1201C1866.91 53.0401 1866.32 55.8134 1866.32 59.4401V114H1850Z" fill="white" fill-opacity="0.3"/>
<path d="M2003.98 55.6001C2003.87 52.8267 2002.96 50.7467 2001.26 49.3601C1999.66 47.9734 1997.79 47.2801 1995.66 47.2801C1993.1 47.2801 1991.12 48.1334 1989.74 49.8401C1988.35 51.4401 1987.66 53.3067 1987.66 55.4401C1987.66 56.9334 1988.03 58.4267 1988.78 59.9201C1989.52 61.3067 1991.44 62.5867 1994.54 63.7601L2004.14 67.6001C2010.22 69.9468 2014.38 73.1467 2016.62 77.2001C2018.96 81.2534 2020.14 85.6801 2020.14 90.4801C2020.14 93.8934 2019.5 97.0934 2018.22 100.08C2017.04 102.96 2015.39 105.52 2013.26 107.76C2011.12 110 2008.56 111.76 2005.58 113.04C2002.59 114.32 1999.34 114.96 1995.82 114.96C1989.2 114.96 1983.66 112.88 1979.18 108.72C1976.94 106.693 1975.12 104.187 1973.74 101.2C1972.35 98.1067 1971.6 94.5334 1971.5 90.4801H1986.86C1987.18 92.7201 1987.92 94.8001 1989.1 96.7201C1990.38 98.6401 1992.56 99.6001 1995.66 99.6001C1998 99.6001 2000.08 98.8534 2001.9 97.3601C2003.82 95.7601 2004.78 93.5734 2004.78 90.8001C2004.78 88.5601 2004.19 86.6401 2003.02 85.0401C2001.84 83.4401 1999.71 82.0534 1996.62 80.8801L1988.78 78.0001C1983.66 76.0801 1979.6 73.2534 1976.62 69.5201C1973.74 65.6801 1972.3 61.0401 1972.3 55.6001C1972.3 52.1867 1972.94 49.0401 1974.22 46.1601C1975.5 43.1734 1977.26 40.6134 1979.5 38.4801C1981.63 36.3467 1984.14 34.7467 1987.02 33.6801C1989.9 32.5067 1992.99 31.9201 1996.3 31.9201C1999.6 31.9201 2002.64 32.5067 2005.42 33.6801C2008.3 34.8534 2010.75 36.5067 2012.78 38.6401C2014.8 40.7734 2016.4 43.3334 2017.58 46.3201C2018.75 49.2001 2019.34 52.2934 2019.34 55.6001H2003.98Z" fill="white" fill-opacity="0.3"/>
<path d="M2030.63 32.8801V8.24008H2046.95V32.8801H2057.03V45.6801H2046.95V90.6401C2046.95 92.5601 2047.11 94.0534 2047.43 95.1201C2047.85 96.1867 2048.49 96.9867 2049.35 97.5201C2050.2 98.0534 2051.21 98.3734 2052.39 98.4801C2053.67 98.5867 2055.21 98.6401 2057.03 98.6401V114H2050.31C2046.57 114 2043.43 113.413 2040.87 112.24C2038.41 111.067 2036.44 109.573 2034.95 107.76C2033.45 105.947 2032.33 103.92 2031.59 101.68C2030.95 99.3334 2030.63 97.0934 2030.63 94.9601V45.6801H2022.47V32.8801H2030.63Z" fill="white" fill-opacity="0.3"/>
<path d="M2112.08 32.8801V114H2095.76V106.16H2095.44C2093.74 108.72 2091.66 110.853 2089.2 112.56C2086.86 114.16 2083.82 114.96 2080.08 114.96C2078.06 114.96 2076.03 114.64 2074 114C2071.98 113.253 2070.16 112.08 2068.56 110.48C2066.96 108.88 2065.68 106.853 2064.72 104.4C2063.76 101.84 2063.28 98.7467 2063.28 95.1201V32.8801H2079.6V89.0401C2079.6 92.0268 2080.3 94.3734 2081.68 96.0801C2083.07 97.7867 2085.04 98.6401 2087.6 98.6401C2090.7 98.6401 2092.83 97.6801 2094 95.7601C2095.18 93.8401 2095.76 91.0667 2095.76 87.4401V32.8801H2112.08Z" fill="white" fill-opacity="0.3"/>
<path d="M2141.79 87.6001C2141.79 90.9067 2142.43 93.5734 2143.71 95.6001C2144.99 97.6267 2147.02 98.6401 2149.79 98.6401C2152.24 98.6401 2154.22 97.7334 2155.71 95.9201C2157.2 94.0001 2157.95 91.5467 2157.95 88.5601V57.0401C2157.95 54.4801 2157.15 52.4001 2155.55 50.8001C2154.06 49.0934 2152.14 48.2401 2149.79 48.2401C2146.7 48.2401 2144.56 49.2001 2143.39 51.1201C2142.32 53.0401 2141.79 55.2801 2141.79 57.8401V87.6001ZM2157.95 114V106.64C2156.88 107.813 2155.87 108.933 2154.91 110C2153.95 110.96 2152.88 111.813 2151.71 112.56C2150.54 113.307 2149.2 113.893 2147.71 114.32C2146.22 114.747 2144.46 114.96 2142.43 114.96C2135.6 114.96 2130.86 112.4 2128.19 107.28C2127.23 105.467 2126.54 103.227 2126.11 100.56C2125.68 97.8934 2125.47 94.3201 2125.47 89.8401V58.9601C2125.47 53.0934 2125.63 48.7734 2125.95 46.0001C2126.59 40.6667 2129.1 36.6667 2133.47 34.0001C2135.5 32.6134 2138.54 31.9201 2142.59 31.9201C2145.79 31.9201 2148.62 32.6667 2151.07 34.1601C2153.63 35.5467 2155.82 37.5734 2157.63 40.2401H2157.95V0.0800781H2174.27V114H2157.95Z" fill="white" fill-opacity="0.3"/>
<path d="M2180.78 32.8801H2198.06L2209.26 83.4401H2209.58L2220.62 32.8801H2237.42L2214.06 128.08C2213.21 131.707 2211.98 134.693 2210.38 137.04C2208.89 139.387 2207.13 141.307 2205.1 142.8C2203.07 144.293 2200.89 145.307 2198.54 145.84C2196.3 146.48 2193.95 146.8 2191.5 146.8H2187.02V131.44H2190.7C2192.3 131.44 2193.69 131.227 2194.86 130.8C2196.03 130.373 2197.1 129.413 2198.06 127.92C2198.91 126.427 2199.71 124.293 2200.46 121.52C2201.21 118.853 2202.06 115.12 2203.02 110.32L2180.78 32.8801Z" fill="white" fill-opacity="0.3"/>
</svg>
